<?xml version="1.0" encoding="utf-8" standalone="no"?>
<!DOCTYPE svg PUBLIC "-//W3C//DTD SVG 1.1//EN"
  "http://www.w3.org/Graphics/SVG/1.1/DTD/svg11.dtd">
<svg xmlns:xlink="http://www.w3.org/1999/xlink" width="791.615625pt" height="395.591875pt" viewBox="0 0 791.615625 395.591875" xmlns="http://www.w3.org/2000/svg" version="1.1">
 <metadata>
  <rdf:RDF xmlns:dc="http://purl.org/dc/elements/1.1/" xmlns:cc="http://creativecommons.org/ns#" xmlns:rdf="http://www.w3.org/1999/02/22-rdf-syntax-ns#">
   <cc:Work>
    <dc:type rdf:resource="http://purl.org/dc/dcmitype/StillImage"/>
    <dc:date>2026-01-30T16:03:30.058816</dc:date>
    <dc:format>image/svg+xml</dc:format>
    <dc:creator>
     <cc:Agent>
      <dc:title>Matplotlib v3.10.0, https://matplotlib.org/</dc:title>
     </cc:Agent>
    </dc:creator>
   </cc:Work>
  </rdf:RDF>
 </metadata>
 <defs>
  <style type="text/css">*{stroke-linejoin: round; stroke-linecap: butt}</style>
 </defs>
 <g id="figure_1">
  <g id="patch_1">
   <path d="M 0 395.591875 
L 791.615625 395.591875 
L 791.615625 -0 
L 0 -0 
z
" style="fill: #ffffff"/>
  </g>
  <g id="axes_1">
   <g id="patch_2">
    <path d="M 49.615625 352.445 
L 780.815625 352.445 
L 780.815625 32.645 
L 49.615625 32.645 
z
" style="fill: #ffffff"/>
   </g>
   <g id="patch_3">
    <path d="M 82.851989 352.445 
L 169.555546 352.445 
L 169.555546 61.776114 
L 82.851989 61.776114 
z
" clip-path="url(#p988750274a)" style="fill: #9aa3ae; stroke: #ffffff; stroke-linejoin: miter"/>
   </g>
   <g id="patch_4">
    <path d="M 227.357917 352.445 
L 314.061475 352.445 
L 314.061475 63.630264 
L 227.357917 63.630264 
z
" clip-path="url(#p988750274a)" style="fill: #9aa3ae; stroke: #ffffff; stroke-linejoin: miter"/>
   </g>
   <g id="patch_5">
    <path d="M 371.863846 352.445 
L 458.567404 352.445 
L 458.567404 86.759104 
L 371.863846 86.759104 
z
" clip-path="url(#p988750274a)" style="fill: #e69f00; stroke: #ffffff; stroke-linejoin: miter"/>
   </g>
   <g id="patch_6">
    <path d="M 516.369775 352.445 
L 603.073333 352.445 
L 603.073333 189.622949 
L 516.369775 189.622949 
z
" clip-path="url(#p988750274a)" style="fill: #9aa3ae; stroke: #ffffff; stroke-linejoin: miter"/>
   </g>
   <g id="patch_7">
    <path d="M 660.875704 352.445 
L 747.579261 352.445 
L 747.579261 252.862506 
L 660.875704 252.862506 
z
" clip-path="url(#p988750274a)" style="fill: #9aa3ae; stroke: #ffffff; stroke-linejoin: miter"/>
   </g>
   <g id="matplotlib.axis_1">
    <g id="xtick_1">
     <g id="line2d_1">
      <defs>
       <path id="me6768016b9" d="M 0 0 
L 0 3.5 
" style="stroke: #000000; stroke-width: 0.8"/>
      </defs>
      <g>
       <use xlink:href="#me6768016b9" x="126.203767" y="352.445" style="stroke: #000000; stroke-width: 0.8"/>
      </g>
     </g>
     <g id="text_1">
      <!-- &gt;4h -->
      <g transform="translate(117.258455 366.848125) scale(0.1 -0.1)">
       <defs>
        <path id="SegoeUI-3e" d="M 3538 1747 
L 850 397 
L 850 863 
L 2863 1838 
L 2863 1856 
L 850 2969 
L 850 3438 
L 3538 1931 
L 3538 1747 
z
" transform="scale(0.015625)"/>
        <path id="SegoeUI-34" d="M 2656 4481 
L 2656 1522 
L 3231 1522 
L 3231 1053 
L 2656 1053 
L 2656 0 
L 2150 0 
L 2150 1053 
L 44 1053 
L 44 1497 
Q 338 1828 638 2204 
Q 938 2581 1211 2968 
Q 1484 3356 1717 3742 
Q 1950 4128 2109 4481 
L 2656 4481 
z
M 622 1522 
L 2150 1522 
L 2150 3716 
Q 1916 3306 1706 2984 
Q 1497 2663 1308 2400 
Q 1119 2138 947 1925 
Q 775 1713 622 1522 
z
" transform="scale(0.015625)"/>
        <path id="SegoeUI-68" d="M 3175 0 
L 2663 0 
L 2663 1844 
Q 2663 2844 1919 2844 
Q 1544 2844 1287 2555 
Q 1031 2266 1031 1813 
L 1031 0 
L 519 0 
L 519 4738 
L 1031 4738 
L 1031 2669 
L 1044 2669 
Q 1413 3275 2094 3275 
Q 3175 3275 3175 1972 
L 3175 0 
z
" transform="scale(0.015625)"/>
       </defs>
       <use xlink:href="#SegoeUI-3e"/>
       <use xlink:href="#SegoeUI-34" transform="translate(68.408203 0)"/>
       <use xlink:href="#SegoeUI-68" transform="translate(122.314453 0)"/>
      </g>
     </g>
    </g>
    <g id="xtick_2">
     <g id="line2d_2">
      <g>
       <use xlink:href="#me6768016b9" x="270.709696" y="352.445" style="stroke: #000000; stroke-width: 0.8"/>
      </g>
     </g>
     <g id="text_2">
      <!-- &gt;12h -->
      <g transform="translate(259.069071 366.848125) scale(0.1 -0.1)">
       <defs>
        <path id="SegoeUI-31" d="M 2263 0 
L 1750 0 
L 1750 3872 
Q 1691 3813 1577 3736 
Q 1463 3659 1320 3584 
Q 1178 3509 1020 3443 
Q 863 3378 713 3341 
L 713 3859 
Q 881 3906 1070 3986 
Q 1259 4066 1442 4164 
Q 1625 4263 1787 4370 
Q 1950 4478 2069 4581 
L 2263 4581 
L 2263 0 
z
" transform="scale(0.015625)"/>
        <path id="SegoeUI-32" d="M 2413 3306 
Q 2413 3513 2348 3666 
Q 2284 3819 2173 3920 
Q 2063 4022 1913 4072 
Q 1763 4122 1588 4122 
Q 1438 4122 1294 4081 
Q 1150 4041 1014 3969 
Q 878 3897 751 3797 
Q 625 3697 516 3575 
L 516 4125 
Q 731 4334 998 4445 
Q 1266 4556 1650 4556 
Q 1925 4556 2159 4476 
Q 2394 4397 2566 4244 
Q 2738 4091 2836 3866 
Q 2934 3641 2934 3350 
Q 2934 3084 2873 2868 
Q 2813 2653 2689 2462 
Q 2566 2272 2378 2097 
Q 2191 1922 1938 1741 
Q 1622 1516 1417 1356 
Q 1213 1197 1092 1058 
Q 972 919 923 780 
Q 875 641 875 459 
L 3106 459 
L 3106 0 
L 341 0 
L 341 222 
Q 341 509 403 728 
Q 466 947 609 1144 
Q 753 1341 986 1537 
Q 1219 1734 1556 1981 
Q 1800 2156 1964 2315 
Q 2128 2475 2228 2634 
Q 2328 2794 2370 2958 
Q 2413 3122 2413 3306 
z
" transform="scale(0.015625)"/>
       </defs>
       <use xlink:href="#SegoeUI-3e"/>
       <use xlink:href="#SegoeUI-31" transform="translate(68.408203 0)"/>
       <use xlink:href="#SegoeUI-32" transform="translate(122.314453 0)"/>
       <use xlink:href="#SegoeUI-68" transform="translate(176.220703 0)"/>
      </g>
     </g>
    </g>
    <g id="xtick_3">
     <g id="line2d_3">
      <g>
       <use xlink:href="#me6768016b9" x="415.215625" y="352.445" style="stroke: #000000; stroke-width: 0.8"/>
      </g>
     </g>
     <g id="text_3">
      <!-- &gt;24h -->
      <g transform="translate(403.575 366.848125) scale(0.1 -0.1)">
       <use xlink:href="#SegoeUI-3e"/>
       <use xlink:href="#SegoeUI-32" transform="translate(68.408203 0)"/>
       <use xlink:href="#SegoeUI-34" transform="translate(122.314453 0)"/>
       <use xlink:href="#SegoeUI-68" transform="translate(176.220703 0)"/>
      </g>
     </g>
    </g>
    <g id="xtick_4">
     <g id="line2d_4">
      <g>
       <use xlink:href="#me6768016b9" x="559.721554" y="352.445" style="stroke: #000000; stroke-width: 0.8"/>
      </g>
     </g>
     <g id="text_4">
      <!-- &gt;48h -->
      <g transform="translate(548.080929 366.848125) scale(0.1 -0.1)">
       <defs>
        <path id="SegoeUI-38" d="M 281 1250 
Q 281 1428 337 1608 
Q 394 1788 498 1944 
Q 603 2100 758 2228 
Q 913 2356 1109 2431 
Q 819 2594 647 2848 
Q 475 3103 475 3413 
Q 475 3659 570 3868 
Q 666 4078 834 4231 
Q 1003 4384 1234 4470 
Q 1466 4556 1734 4556 
Q 2006 4556 2237 4468 
Q 2469 4381 2637 4228 
Q 2806 4075 2900 3865 
Q 2994 3656 2994 3413 
Q 2994 3103 2822 2848 
Q 2650 2594 2366 2431 
Q 2559 2356 2712 2228 
Q 2866 2100 2970 1944 
Q 3075 1788 3131 1608 
Q 3188 1428 3188 1250 
Q 3188 956 3081 712 
Q 2975 469 2783 295 
Q 2591 122 2323 25 
Q 2056 -72 1734 -72 
Q 1416 -72 1150 25 
Q 884 122 690 295 
Q 497 469 389 712 
Q 281 956 281 1250 
z
M 838 1294 
Q 838 1084 902 915 
Q 966 747 1083 628 
Q 1200 509 1367 445 
Q 1534 381 1738 381 
Q 1934 381 2100 447 
Q 2266 513 2386 631 
Q 2506 750 2573 919 
Q 2641 1088 2641 1294 
Q 2641 1481 2577 1645 
Q 2513 1809 2394 1934 
Q 2275 2059 2109 2131 
Q 1944 2203 1738 2203 
Q 1544 2203 1380 2136 
Q 1216 2069 1095 1948 
Q 975 1828 906 1661 
Q 838 1494 838 1294 
z
M 997 3372 
Q 997 3213 1055 3077 
Q 1113 2941 1214 2839 
Q 1316 2738 1450 2680 
Q 1584 2622 1738 2622 
Q 1891 2622 2027 2681 
Q 2163 2741 2263 2842 
Q 2363 2944 2422 3080 
Q 2481 3216 2481 3372 
Q 2481 3534 2423 3671 
Q 2366 3809 2266 3909 
Q 2166 4009 2030 4067 
Q 1894 4125 1738 4125 
Q 1572 4125 1436 4065 
Q 1300 4006 1201 3904 
Q 1103 3803 1050 3665 
Q 997 3528 997 3372 
z
" transform="scale(0.015625)"/>
       </defs>
       <use xlink:href="#SegoeUI-3e"/>
       <use xlink:href="#SegoeUI-34" transform="translate(68.408203 0)"/>
       <use xlink:href="#SegoeUI-38" transform="translate(122.314453 0)"/>
       <use xlink:href="#SegoeUI-68" transform="translate(176.220703 0)"/>
      </g>
     </g>
    </g>
    <g id="xtick_5">
     <g id="line2d_5">
      <g>
       <use xlink:href="#me6768016b9" x="704.227483" y="352.445" style="stroke: #000000; stroke-width: 0.8"/>
      </g>
     </g>
     <g id="text_5">
      <!-- &gt;72h -->
      <g transform="translate(692.586858 366.848125) scale(0.1 -0.1)">
       <defs>
        <path id="SegoeUI-37" d="M 3156 4184 
Q 3053 4006 2908 3740 
Q 2763 3475 2600 3144 
Q 2438 2813 2269 2431 
Q 2100 2050 1953 1644 
Q 1806 1238 1695 820 
Q 1584 403 1534 0 
L 984 0 
Q 1041 400 1158 817 
Q 1275 1234 1423 1636 
Q 1572 2038 1737 2409 
Q 1903 2781 2059 3093 
Q 2216 3406 2345 3645 
Q 2475 3884 2553 4019 
L 306 4019 
L 306 4481 
L 3156 4481 
L 3156 4184 
z
" transform="scale(0.015625)"/>
       </defs>
       <use xlink:href="#SegoeUI-3e"/>
       <use xlink:href="#SegoeUI-37" transform="translate(68.408203 0)"/>
       <use xlink:href="#SegoeUI-32" transform="translate(122.314453 0)"/>
       <use xlink:href="#SegoeUI-68" transform="translate(176.220703 0)"/>
      </g>
     </g>
    </g>
    <g id="text_6">
     <!-- Duration Threshold -->
     <g transform="translate(364.308437 382.031875) scale(0.12 -0.12)">
      <defs>
       <path id="SegoeUI-44" d="M 588 0 
L 588 4481 
L 1825 4481 
Q 4194 4481 4194 2297 
Q 4194 1259 3536 629 
Q 2878 0 1775 0 
L 588 0 
z
M 1113 4006 
L 1113 475 
L 1781 475 
Q 2663 475 3153 947 
Q 3644 1419 3644 2284 
Q 3644 4006 1813 4006 
L 1113 4006 
z
" transform="scale(0.015625)"/>
       <path id="SegoeUI-75" d="M 3106 0 
L 2594 0 
L 2594 506 
L 2581 506 
Q 2263 -75 1594 -75 
Q 450 -75 450 1288 
L 450 3200 
L 959 3200 
L 959 1369 
Q 959 356 1734 356 
Q 2109 356 2351 632 
Q 2594 909 2594 1356 
L 2594 3200 
L 3106 3200 
L 3106 0 
z
" transform="scale(0.015625)"/>
       <path id="SegoeUI-72" d="M 2188 2681 
Q 2053 2784 1800 2784 
Q 1472 2784 1251 2475 
Q 1031 2166 1031 1631 
L 1031 0 
L 519 0 
L 519 3200 
L 1031 3200 
L 1031 2541 
L 1044 2541 
Q 1153 2878 1378 3067 
Q 1603 3256 1881 3256 
Q 2081 3256 2188 3213 
L 2188 2681 
z
" transform="scale(0.015625)"/>
       <path id="SegoeUI-61" d="M 2809 0 
L 2297 0 
L 2297 500 
L 2284 500 
Q 1950 -75 1300 -75 
Q 822 -75 551 178 
Q 281 431 281 850 
Q 281 1747 1338 1894 
L 2297 2028 
Q 2297 2844 1638 2844 
Q 1059 2844 594 2450 
L 594 2975 
Q 1066 3275 1681 3275 
Q 2809 3275 2809 2081 
L 2809 0 
z
M 2297 1619 
L 1525 1513 
Q 1169 1463 987 1336 
Q 806 1209 806 888 
Q 806 653 973 504 
Q 1141 356 1419 356 
Q 1800 356 2048 623 
Q 2297 891 2297 1300 
L 2297 1619 
z
" transform="scale(0.015625)"/>
       <path id="SegoeUI-74" d="M 2003 31 
Q 1822 -69 1525 -69 
Q 684 -69 684 869 
L 684 2763 
L 134 2763 
L 134 3200 
L 684 3200 
L 684 3981 
L 1197 4147 
L 1197 3200 
L 2003 3200 
L 2003 2763 
L 1197 2763 
L 1197 959 
Q 1197 638 1306 500 
Q 1416 363 1669 363 
Q 1863 363 2003 469 
L 2003 31 
z
" transform="scale(0.015625)"/>
       <path id="SegoeUI-69" d="M 781 4013 
Q 644 4013 547 4106 
Q 450 4200 450 4344 
Q 450 4488 547 4583 
Q 644 4678 781 4678 
Q 922 4678 1020 4583 
Q 1119 4488 1119 4344 
Q 1119 4206 1020 4109 
Q 922 4013 781 4013 
z
M 1031 0 
L 519 0 
L 519 3200 
L 1031 3200 
L 1031 0 
z
" transform="scale(0.015625)"/>
       <path id="SegoeUI-6f" d="M 1856 -75 
Q 1147 -75 723 373 
Q 300 822 300 1563 
Q 300 2369 740 2822 
Q 1181 3275 1931 3275 
Q 2647 3275 3048 2834 
Q 3450 2394 3450 1613 
Q 3450 847 3017 386 
Q 2584 -75 1856 -75 
z
M 1894 2844 
Q 1400 2844 1112 2508 
Q 825 2172 825 1581 
Q 825 1013 1115 684 
Q 1406 356 1894 356 
Q 2391 356 2658 678 
Q 2925 1000 2925 1594 
Q 2925 2194 2658 2519 
Q 2391 2844 1894 2844 
z
" transform="scale(0.015625)"/>
       <path id="SegoeUI-6e" d="M 3175 0 
L 2663 0 
L 2663 1825 
Q 2663 2844 1919 2844 
Q 1534 2844 1282 2555 
Q 1031 2266 1031 1825 
L 1031 0 
L 519 0 
L 519 3200 
L 1031 3200 
L 1031 2669 
L 1044 2669 
Q 1406 3275 2094 3275 
Q 2619 3275 2897 2936 
Q 3175 2597 3175 1956 
L 3175 0 
z
" transform="scale(0.015625)"/>
       <path id="SegoeUI-20" transform="scale(0.015625)"/>
       <path id="SegoeUI-54" d="M 3238 4006 
L 1944 4006 
L 1944 0 
L 1419 0 
L 1419 4006 
L 128 4006 
L 128 4481 
L 3238 4481 
L 3238 4006 
z
" transform="scale(0.015625)"/>
       <path id="SegoeUI-65" d="M 3091 1472 
L 831 1472 
Q 844 938 1119 647 
Q 1394 356 1875 356 
Q 2416 356 2869 713 
L 2869 231 
Q 2447 -75 1753 -75 
Q 1075 -75 687 361 
Q 300 797 300 1588 
Q 300 2334 723 2804 
Q 1147 3275 1775 3275 
Q 2403 3275 2747 2869 
Q 3091 2463 3091 1741 
L 3091 1472 
z
M 2566 1906 
Q 2563 2350 2352 2597 
Q 2141 2844 1766 2844 
Q 1403 2844 1150 2584 
Q 897 2325 838 1906 
L 2566 1906 
z
" transform="scale(0.015625)"/>
       <path id="SegoeUI-73" d="M 325 116 
L 325 666 
Q 744 356 1247 356 
Q 1922 356 1922 806 
Q 1922 934 1864 1023 
Q 1806 1113 1707 1181 
Q 1609 1250 1476 1304 
Q 1344 1359 1191 1419 
Q 978 1503 817 1589 
Q 656 1675 548 1783 
Q 441 1891 386 2028 
Q 331 2166 331 2350 
Q 331 2575 434 2748 
Q 538 2922 709 3039 
Q 881 3156 1101 3215 
Q 1322 3275 1556 3275 
Q 1972 3275 2300 3131 
L 2300 2613 
Q 1947 2844 1488 2844 
Q 1344 2844 1228 2811 
Q 1113 2778 1030 2718 
Q 947 2659 901 2576 
Q 856 2494 856 2394 
Q 856 2269 901 2184 
Q 947 2100 1034 2034 
Q 1122 1969 1247 1916 
Q 1372 1863 1531 1800 
Q 1744 1719 1912 1633 
Q 2081 1547 2200 1439 
Q 2319 1331 2383 1190 
Q 2447 1050 2447 856 
Q 2447 619 2342 444 
Q 2238 269 2063 153 
Q 1888 38 1659 -18 
Q 1431 -75 1181 -75 
Q 688 -75 325 116 
z
" transform="scale(0.015625)"/>
       <path id="SegoeUI-6c" d="M 1031 0 
L 519 0 
L 519 4738 
L 1031 4738 
L 1031 0 
z
" transform="scale(0.015625)"/>
       <path id="SegoeUI-64" d="M 3250 0 
L 2738 0 
L 2738 544 
L 2725 544 
Q 2369 -75 1625 -75 
Q 1022 -75 661 354 
Q 300 784 300 1525 
Q 300 2319 700 2797 
Q 1100 3275 1766 3275 
Q 2425 3275 2725 2756 
L 2738 2756 
L 2738 4738 
L 3250 4738 
L 3250 0 
z
M 2738 1447 
L 2738 1919 
Q 2738 2306 2481 2575 
Q 2225 2844 1831 2844 
Q 1363 2844 1094 2500 
Q 825 2156 825 1550 
Q 825 997 1083 676 
Q 1341 356 1775 356 
Q 2203 356 2470 665 
Q 2738 975 2738 1447 
z
" transform="scale(0.015625)"/>
      </defs>
      <use xlink:href="#SegoeUI-44"/>
      <use xlink:href="#SegoeUI-75" transform="translate(70.117188 0)"/>
      <use xlink:href="#SegoeUI-72" transform="translate(126.708984 0)"/>
      <use xlink:href="#SegoeUI-61" transform="translate(161.474609 0)"/>
      <use xlink:href="#SegoeUI-74" transform="translate(212.353516 0)"/>
      <use xlink:href="#SegoeUI-69" transform="translate(246.240234 0)"/>
      <use xlink:href="#SegoeUI-6f" transform="translate(270.458984 0)"/>
      <use xlink:href="#SegoeUI-6e" transform="translate(329.052734 0)"/>
      <use xlink:href="#SegoeUI-20" transform="translate(385.644531 0)"/>
      <use xlink:href="#SegoeUI-54" transform="translate(413.037109 0)"/>
      <use xlink:href="#SegoeUI-68" transform="translate(465.429688 0)"/>
      <use xlink:href="#SegoeUI-72" transform="translate(522.021484 0)"/>
      <use xlink:href="#SegoeUI-65" transform="translate(555.412109 0)"/>
      <use xlink:href="#SegoeUI-73" transform="translate(607.707031 0)"/>
      <use xlink:href="#SegoeUI-68" transform="translate(650.138672 0)"/>
      <use xlink:href="#SegoeUI-6f" transform="translate(706.730469 0)"/>
      <use xlink:href="#SegoeUI-6c" transform="translate(765.324219 0)"/>
      <use xlink:href="#SegoeUI-64" transform="translate(789.542969 0)"/>
     </g>
    </g>
   </g>
   <g id="matplotlib.axis_2">
    <g id="ytick_1">
     <g id="line2d_6">
      <path d="M 49.615625 352.445 
L 780.815625 352.445 
" clip-path="url(#p988750274a)" style="fill: none; stroke: #e6e6e6; stroke-width: 0.6; stroke-linecap: square"/>
     </g>
     <g id="line2d_7">
      <defs>
       <path id="me6a580e6b5" d="M 0 0 
L -3.5 0 
" style="stroke: #000000; stroke-width: 0.8"/>
      </defs>
      <g>
       <use xlink:href="#me6a580e6b5" x="49.615625" y="352.445" style="stroke: #000000; stroke-width: 0.8"/>
      </g>
     </g>
     <g id="text_7">
      <!-- 0 -->
      <g transform="translate(37.225 356.146563) scale(0.1 -0.1)">
       <defs>
        <path id="SegoeUI-30" d="M 3188 2259 
Q 3188 1697 3086 1262 
Q 2984 828 2792 529 
Q 2600 231 2320 76 
Q 2041 -78 1684 -78 
Q 1347 -78 1083 70 
Q 819 219 637 503 
Q 456 788 362 1202 
Q 269 1616 269 2150 
Q 269 2738 367 3188 
Q 466 3638 656 3942 
Q 847 4247 1130 4401 
Q 1413 4556 1778 4556 
Q 3188 4556 3188 2259 
z
M 2663 2209 
Q 2663 4122 1753 4122 
Q 794 4122 794 2175 
Q 794 359 1734 359 
Q 2663 359 2663 2209 
z
" transform="scale(0.015625)"/>
       </defs>
       <use xlink:href="#SegoeUI-30"/>
      </g>
     </g>
    </g>
    <g id="ytick_2">
     <g id="line2d_8">
      <path d="M 49.615625 294.299545 
L 780.815625 294.299545 
" clip-path="url(#p988750274a)" style="fill: none; stroke: #e6e6e6; stroke-width: 0.6; stroke-linecap: square"/>
     </g>
     <g id="line2d_9">
      <g>
       <use xlink:href="#me6a580e6b5" x="49.615625" y="294.299545" style="stroke: #000000; stroke-width: 0.8"/>
      </g>
     </g>
     <g id="text_8">
      <!-- 20 -->
      <g transform="translate(31.834375 298.001108) scale(0.1 -0.1)">
       <use xlink:href="#SegoeUI-32"/>
       <use xlink:href="#SegoeUI-30" transform="translate(53.90625 0)"/>
      </g>
     </g>
    </g>
    <g id="ytick_3">
     <g id="line2d_10">
      <path d="M 49.615625 236.154091 
L 780.815625 236.154091 
" clip-path="url(#p988750274a)" style="fill: none; stroke: #e6e6e6; stroke-width: 0.6; stroke-linecap: square"/>
     </g>
     <g id="line2d_11">
      <g>
       <use xlink:href="#me6a580e6b5" x="49.615625" y="236.154091" style="stroke: #000000; stroke-width: 0.8"/>
      </g>
     </g>
     <g id="text_9">
      <!-- 40 -->
      <g transform="translate(31.834375 239.855653) scale(0.1 -0.1)">
       <use xlink:href="#SegoeUI-34"/>
       <use xlink:href="#SegoeUI-30" transform="translate(53.90625 0)"/>
      </g>
     </g>
    </g>
    <g id="ytick_4">
     <g id="line2d_12">
      <path d="M 49.615625 178.008636 
L 780.815625 178.008636 
" clip-path="url(#p988750274a)" style="fill: none; stroke: #e6e6e6; stroke-width: 0.6; stroke-linecap: square"/>
     </g>
     <g id="line2d_13">
      <g>
       <use xlink:href="#me6a580e6b5" x="49.615625" y="178.008636" style="stroke: #000000; stroke-width: 0.8"/>
      </g>
     </g>
     <g id="text_10">
      <!-- 60 -->
      <g transform="translate(31.834375 181.710199) scale(0.1 -0.1)">
       <defs>
        <path id="SegoeUI-36" d="M 3194 1422 
Q 3194 1094 3087 819 
Q 2981 544 2793 344 
Q 2606 144 2347 33 
Q 2088 -78 1784 -78 
Q 1447 -78 1180 62 
Q 913 203 727 467 
Q 541 731 444 1112 
Q 347 1494 347 1972 
Q 347 2556 476 3032 
Q 606 3509 845 3848 
Q 1084 4188 1421 4372 
Q 1759 4556 2175 4556 
Q 2638 4556 2919 4428 
L 2919 3944 
Q 2572 4122 2188 4122 
Q 1888 4122 1647 3987 
Q 1406 3853 1234 3608 
Q 1063 3363 970 3016 
Q 878 2669 878 2244 
L 891 2244 
Q 1200 2803 1913 2803 
Q 2206 2803 2442 2703 
Q 2678 2603 2845 2420 
Q 3013 2238 3103 1984 
Q 3194 1731 3194 1422 
z
M 2669 1356 
Q 2669 1591 2609 1778 
Q 2550 1966 2439 2097 
Q 2328 2228 2165 2298 
Q 2003 2369 1797 2369 
Q 1606 2369 1443 2297 
Q 1281 2225 1162 2101 
Q 1044 1978 976 1814 
Q 909 1650 909 1466 
Q 909 1234 975 1032 
Q 1041 831 1159 681 
Q 1278 531 1442 445 
Q 1606 359 1806 359 
Q 2000 359 2159 432 
Q 2319 506 2431 637 
Q 2544 769 2606 951 
Q 2669 1134 2669 1356 
z
" transform="scale(0.015625)"/>
       </defs>
       <use xlink:href="#SegoeUI-36"/>
       <use xlink:href="#SegoeUI-30" transform="translate(53.90625 0)"/>
      </g>
     </g>
    </g>
    <g id="ytick_5">
     <g id="line2d_14">
      <path d="M 49.615625 119.863182 
L 780.815625 119.863182 
" clip-path="url(#p988750274a)" style="fill: none; stroke: #e6e6e6; stroke-width: 0.6; stroke-linecap: square"/>
     </g>
     <g id="line2d_15">
      <g>
       <use xlink:href="#me6a580e6b5" x="49.615625" y="119.863182" style="stroke: #000000; stroke-width: 0.8"/>
      </g>
     </g>
     <g id="text_11">
      <!-- 80 -->
      <g transform="translate(31.834375 123.564744) scale(0.1 -0.1)">
       <use xlink:href="#SegoeUI-38"/>
       <use xlink:href="#SegoeUI-30" transform="translate(53.90625 0)"/>
      </g>
     </g>
    </g>
    <g id="ytick_6">
     <g id="line2d_16">
      <path d="M 49.615625 61.717727 
L 780.815625 61.717727 
" clip-path="url(#p988750274a)" style="fill: none; stroke: #e6e6e6; stroke-width: 0.6; stroke-linecap: square"/>
     </g>
     <g id="line2d_17">
      <g>
       <use xlink:href="#me6a580e6b5" x="49.615625" y="61.717727" style="stroke: #000000; stroke-width: 0.8"/>
      </g>
     </g>
     <g id="text_12">
      <!-- 100 -->
      <g transform="translate(26.44375 65.41929) scale(0.1 -0.1)">
       <use xlink:href="#SegoeUI-31"/>
       <use xlink:href="#SegoeUI-30" transform="translate(53.90625 0)"/>
       <use xlink:href="#SegoeUI-30" transform="translate(107.8125 0)"/>
      </g>
     </g>
    </g>
    <g id="text_13">
     <!-- % of Medical Baseline Customer-Hours -->
     <g transform="translate(19.68375 295.14125) rotate(-90) scale(0.12 -0.12)">
      <defs>
       <path id="SegoeUI-25" d="M 1263 2234 
Q 800 2234 525 2539 
Q 250 2844 250 3353 
Q 250 3909 540 4229 
Q 831 4550 1325 4550 
Q 1803 4550 2067 4253 
Q 2331 3956 2331 3419 
Q 2331 2881 2036 2557 
Q 1741 2234 1263 2234 
z
M 1306 4206 
Q 1009 4206 837 3986 
Q 666 3766 666 3381 
Q 666 3003 834 2792 
Q 1003 2581 1294 2581 
Q 1588 2581 1753 2800 
Q 1919 3019 1919 3406 
Q 1919 3784 1755 3995 
Q 1591 4206 1306 4206 
z
M 4263 4481 
L 1388 -31 
L 941 -31 
L 3813 4481 
L 4263 4481 
z
M 3931 -69 
Q 3469 -69 3194 237 
Q 2919 544 2919 1050 
Q 2919 1606 3212 1929 
Q 3506 2253 3994 2253 
Q 4469 2253 4734 1953 
Q 5000 1653 5000 1113 
Q 5000 578 4704 254 
Q 4409 -69 3931 -69 
z
M 3975 1900 
Q 3675 1900 3504 1681 
Q 3334 1463 3334 1075 
Q 3334 703 3503 492 
Q 3672 281 3963 281 
Q 4256 281 4422 501 
Q 4588 722 4588 1106 
Q 4588 1488 4423 1694 
Q 4259 1900 3975 1900 
z
" transform="scale(0.015625)"/>
       <path id="SegoeUI-66" d="M 2100 4288 
Q 1950 4372 1759 4372 
Q 1222 4372 1222 3694 
L 1222 3200 
L 1972 3200 
L 1972 2763 
L 1222 2763 
L 1222 0 
L 713 0 
L 713 2763 
L 166 2763 
L 166 3200 
L 713 3200 
L 713 3719 
Q 713 4222 1003 4514 
Q 1294 4806 1728 4806 
Q 1963 4806 2100 4750 
L 2100 4288 
z
" transform="scale(0.015625)"/>
       <path id="SegoeUI-4d" d="M 5156 0 
L 4634 0 
L 4634 3006 
Q 4634 3363 4678 3878 
L 4666 3878 
Q 4591 3575 4531 3444 
L 3000 0 
L 2744 0 
L 1216 3419 
Q 1150 3569 1081 3878 
L 1069 3878 
Q 1094 3609 1094 3000 
L 1094 0 
L 588 0 
L 588 4481 
L 1281 4481 
L 2656 1356 
Q 2816 997 2863 819 
L 2881 819 
Q 3016 1188 3097 1369 
L 4500 4481 
L 5156 4481 
L 5156 0 
z
" transform="scale(0.015625)"/>
       <path id="SegoeUI-63" d="M 2700 147 
Q 2331 -75 1825 -75 
Q 1141 -75 720 370 
Q 300 816 300 1525 
Q 300 2316 753 2795 
Q 1206 3275 1963 3275 
Q 2384 3275 2706 3119 
L 2706 2594 
Q 2350 2844 1944 2844 
Q 1453 2844 1139 2492 
Q 825 2141 825 1569 
Q 825 1006 1120 681 
Q 1416 356 1913 356 
Q 2331 356 2700 634 
L 2700 147 
z
" transform="scale(0.015625)"/>
       <path id="SegoeUI-42" d="M 588 0 
L 588 4481 
L 1863 4481 
Q 2444 4481 2784 4197 
Q 3125 3913 3125 3456 
Q 3125 3075 2919 2794 
Q 2713 2513 2350 2394 
L 2350 2381 
Q 2803 2328 3075 2039 
Q 3347 1750 3347 1288 
Q 3347 713 2934 356 
Q 2522 0 1894 0 
L 588 0 
z
M 1113 4006 
L 1113 2559 
L 1650 2559 
Q 2081 2559 2328 2767 
Q 2575 2975 2575 3353 
Q 2575 4006 1716 4006 
L 1113 4006 
z
M 1113 2088 
L 1113 475 
L 1825 475 
Q 2288 475 2542 694 
Q 2797 913 2797 1294 
Q 2797 2088 1716 2088 
L 1113 2088 
z
" transform="scale(0.015625)"/>
       <path id="SegoeUI-43" d="M 3638 188 
Q 3141 -75 2400 -75 
Q 1444 -75 869 540 
Q 294 1156 294 2156 
Q 294 3231 941 3893 
Q 1588 4556 2581 4556 
Q 3219 4556 3638 4372 
L 3638 3813 
Q 3156 4081 2575 4081 
Q 1803 4081 1323 3565 
Q 844 3050 844 2188 
Q 844 1369 1292 883 
Q 1741 397 2469 397 
Q 3144 397 3638 697 
L 3638 188 
z
" transform="scale(0.015625)"/>
       <path id="SegoeUI-6d" d="M 5063 0 
L 4550 0 
L 4550 1838 
Q 4550 2369 4386 2606 
Q 4222 2844 3834 2844 
Q 3506 2844 3276 2544 
Q 3047 2244 3047 1825 
L 3047 0 
L 2534 0 
L 2534 1900 
Q 2534 2844 1806 2844 
Q 1469 2844 1250 2561 
Q 1031 2278 1031 1825 
L 1031 0 
L 519 0 
L 519 3200 
L 1031 3200 
L 1031 2694 
L 1044 2694 
Q 1384 3275 2038 3275 
Q 2366 3275 2609 3092 
Q 2853 2909 2944 2613 
Q 3300 3275 4006 3275 
Q 5063 3275 5063 1972 
L 5063 0 
z
" transform="scale(0.015625)"/>
       <path id="SegoeUI-2d" d="M 2156 1581 
L 450 1581 
L 450 1984 
L 2156 1984 
L 2156 1581 
z
" transform="scale(0.015625)"/>
       <path id="SegoeUI-48" d="M 3956 0 
L 3431 0 
L 3431 2044 
L 1113 2044 
L 1113 0 
L 588 0 
L 588 4481 
L 1113 4481 
L 1113 2516 
L 3431 2516 
L 3431 4481 
L 3956 4481 
L 3956 0 
z
" transform="scale(0.015625)"/>
      </defs>
      <use xlink:href="#SegoeUI-25"/>
      <use xlink:href="#SegoeUI-20" transform="translate(81.835938 0)"/>
      <use xlink:href="#SegoeUI-6f" transform="translate(109.228516 0)"/>
      <use xlink:href="#SegoeUI-66" transform="translate(166.072266 0)"/>
      <use xlink:href="#SegoeUI-20" transform="translate(197.371094 0)"/>
      <use xlink:href="#SegoeUI-4d" transform="translate(224.763672 0)"/>
      <use xlink:href="#SegoeUI-65" transform="translate(314.558594 0)"/>
      <use xlink:href="#SegoeUI-64" transform="translate(366.853516 0)"/>
      <use xlink:href="#SegoeUI-69" transform="translate(425.740234 0)"/>
      <use xlink:href="#SegoeUI-63" transform="translate(449.958984 0)"/>
      <use xlink:href="#SegoeUI-61" transform="translate(496.150391 0)"/>
      <use xlink:href="#SegoeUI-6c" transform="translate(547.029297 0)"/>
      <use xlink:href="#SegoeUI-20" transform="translate(571.248047 0)"/>
      <use xlink:href="#SegoeUI-42" transform="translate(598.640625 0)"/>
      <use xlink:href="#SegoeUI-61" transform="translate(655.964844 0)"/>
      <use xlink:href="#SegoeUI-73" transform="translate(706.84375 0)"/>
      <use xlink:href="#SegoeUI-65" transform="translate(749.275391 0)"/>
      <use xlink:href="#SegoeUI-6c" transform="translate(801.570312 0)"/>
      <use xlink:href="#SegoeUI-69" transform="translate(825.789062 0)"/>
      <use xlink:href="#SegoeUI-6e" transform="translate(850.007812 0)"/>
      <use xlink:href="#SegoeUI-65" transform="translate(906.599609 0)"/>
      <use xlink:href="#SegoeUI-20" transform="translate(958.894531 0)"/>
      <use xlink:href="#SegoeUI-43" transform="translate(986.287109 0)"/>
      <use xlink:href="#SegoeUI-75" transform="translate(1048.201172 0)"/>
      <use xlink:href="#SegoeUI-73" transform="translate(1104.792969 0)"/>
      <use xlink:href="#SegoeUI-74" transform="translate(1147.224609 0)"/>
      <use xlink:href="#SegoeUI-6f" transform="translate(1180.361328 0)"/>
      <use xlink:href="#SegoeUI-6d" transform="translate(1238.955078 0)"/>
      <use xlink:href="#SegoeUI-65" transform="translate(1325.087891 0)"/>
      <use xlink:href="#SegoeUI-72" transform="translate(1377.382812 0)"/>
      <use xlink:href="#SegoeUI-2d" transform="translate(1405.898438 0)"/>
      <use xlink:href="#SegoeUI-48" transform="translate(1445.888672 0)"/>
      <use xlink:href="#SegoeUI-6f" transform="translate(1516.884766 0)"/>
      <use xlink:href="#SegoeUI-75" transform="translate(1575.478516 0)"/>
      <use xlink:href="#SegoeUI-72" transform="translate(1632.070312 0)"/>
      <use xlink:href="#SegoeUI-73" transform="translate(1667.460938 0)"/>
     </g>
    </g>
   </g>
   <g id="patch_8">
    <path d="M 49.615625 352.445 
L 49.615625 32.645 
" style="fill: none; stroke: #1a1a1a; stroke-width: 0.7; stroke-linejoin: miter; stroke-linecap: square"/>
   </g>
   <g id="patch_9">
    <path d="M 49.615625 352.445 
L 780.815625 352.445 
" style="fill: none; stroke: #1a1a1a; stroke-width: 0.7; stroke-linejoin: miter; stroke-linecap: square"/>
   </g>
   <g id="text_14">
    <!-- 100% -->
    <g transform="translate(111.944158 58.868841) scale(0.11 -0.11)">
     <defs>
      <path id="SegoeUI-Bold-31" d="M 2600 4581 
L 2600 0 
L 1616 0 
L 1616 3469 
Q 1534 3397 1423 3333 
Q 1313 3269 1188 3217 
Q 1063 3166 928 3130 
Q 794 3094 663 3078 
L 663 3909 
Q 1047 4022 1387 4197 
Q 1728 4372 2003 4581 
L 2600 4581 
z
" transform="scale(0.015625)"/>
      <path id="SegoeUI-Bold-30" d="M 1816 -78 
Q 216 -78 216 2169 
Q 216 3334 648 3945 
Q 1081 4556 1903 4556 
Q 3466 4556 3466 2272 
Q 3466 1134 3039 528 
Q 2613 -78 1816 -78 
z
M 1859 3803 
Q 1219 3803 1219 2194 
Q 1219 678 1847 678 
Q 2459 678 2459 2241 
Q 2459 3803 1859 3803 
z
" transform="scale(0.015625)"/>
      <path id="SegoeUI-Bold-25" d="M 1344 2209 
Q 866 2209 573 2512 
Q 281 2816 281 3328 
Q 281 3888 592 4216 
Q 903 4544 1422 4544 
Q 1919 4544 2198 4247 
Q 2478 3950 2478 3413 
Q 2478 2859 2168 2534 
Q 1859 2209 1344 2209 
z
M 1403 3994 
Q 947 3994 947 3359 
Q 947 2759 1381 2759 
Q 1825 2759 1825 3384 
Q 1825 3994 1403 3994 
z
M 4616 4481 
L 1697 0 
L 934 0 
L 3847 4481 
L 4616 4481 
z
M 4134 -63 
Q 3656 -63 3364 240 
Q 3072 544 3072 1056 
Q 3072 1616 3383 1944 
Q 3694 2272 4213 2272 
Q 4713 2272 4991 1978 
Q 5269 1684 5269 1147 
Q 5269 594 4959 265 
Q 4650 -63 4134 -63 
z
M 4184 1722 
Q 3731 1722 3731 1088 
Q 3731 488 4172 488 
Q 4616 488 4616 1113 
Q 4616 1403 4497 1562 
Q 4378 1722 4184 1722 
z
" transform="scale(0.015625)"/>
     </defs>
     <use xlink:href="#SegoeUI-Bold-31"/>
     <use xlink:href="#SegoeUI-Bold-30" transform="translate(57.519531 0)"/>
     <use xlink:href="#SegoeUI-Bold-30" transform="translate(115.039062 0)"/>
     <use xlink:href="#SegoeUI-Bold-25" transform="translate(172.558594 0)"/>
    </g>
   </g>
   <g id="text_15">
    <!-- 99% -->
    <g transform="translate(259.613446 60.722991) scale(0.11 -0.11)">
     <defs>
      <path id="SegoeUI-Bold-39" d="M 3397 2456 
Q 3397 1859 3265 1389 
Q 3134 919 2882 594 
Q 2631 269 2268 95 
Q 1906 -78 1447 -78 
Q 897 -78 500 97 
L 500 909 
Q 853 678 1350 678 
Q 1859 678 2146 1025 
Q 2434 1372 2438 2028 
L 2419 2034 
Q 2122 1594 1516 1594 
Q 1241 1594 1008 1697 
Q 775 1800 604 1983 
Q 434 2166 339 2419 
Q 244 2672 244 2975 
Q 244 3328 359 3618 
Q 475 3909 683 4118 
Q 891 4328 1181 4442 
Q 1472 4556 1825 4556 
Q 2191 4556 2481 4414 
Q 2772 4272 2976 4003 
Q 3181 3734 3289 3343 
Q 3397 2953 3397 2456 
z
M 2400 2981 
Q 2400 3153 2356 3304 
Q 2313 3456 2234 3565 
Q 2156 3675 2043 3739 
Q 1931 3803 1797 3803 
Q 1669 3803 1561 3747 
Q 1453 3691 1375 3592 
Q 1297 3494 1253 3356 
Q 1209 3219 1209 3059 
Q 1209 2884 1253 2748 
Q 1297 2613 1376 2519 
Q 1456 2425 1568 2376 
Q 1681 2328 1819 2328 
Q 1950 2328 2056 2379 
Q 2163 2431 2239 2518 
Q 2316 2606 2358 2725 
Q 2400 2844 2400 2981 
z
" transform="scale(0.015625)"/>
     </defs>
     <use xlink:href="#SegoeUI-Bold-39"/>
     <use xlink:href="#SegoeUI-Bold-39" transform="translate(57.519531 0)"/>
     <use xlink:href="#SegoeUI-Bold-25" transform="translate(115.039062 0)"/>
    </g>
   </g>
   <g id="text_16">
    <!-- 91% -->
    <g transform="translate(404.119375 83.851831) scale(0.11 -0.11)">
     <use xlink:href="#SegoeUI-Bold-39"/>
     <use xlink:href="#SegoeUI-Bold-31" transform="translate(57.519531 0)"/>
     <use xlink:href="#SegoeUI-Bold-25" transform="translate(115.039062 0)"/>
    </g>
   </g>
   <g id="text_17">
    <!-- 56% -->
    <g transform="translate(548.625304 186.715676) scale(0.11 -0.11)">
     <defs>
      <path id="SegoeUI-Bold-35" d="M 444 116 
L 444 959 
Q 903 678 1422 678 
Q 1813 678 2033 864 
Q 2253 1050 2253 1369 
Q 2253 2034 1313 2034 
Q 966 2034 513 1981 
L 681 4481 
L 3053 4481 
L 3053 3675 
L 1434 3675 
L 1372 2778 
Q 1613 2797 1788 2797 
Q 2478 2797 2868 2434 
Q 3259 2072 3259 1459 
Q 3259 781 2793 351 
Q 2328 -78 1531 -78 
Q 884 -78 444 116 
z
" transform="scale(0.015625)"/>
      <path id="SegoeUI-Bold-36" d="M 3469 1491 
Q 3469 1159 3353 871 
Q 3238 584 3031 373 
Q 2825 163 2540 42 
Q 2256 -78 1919 -78 
Q 1541 -78 1242 62 
Q 944 203 737 470 
Q 531 738 422 1125 
Q 313 1513 313 2003 
Q 313 2581 455 3051 
Q 597 3522 861 3856 
Q 1125 4191 1500 4373 
Q 1875 4556 2344 4556 
Q 2863 4556 3150 4434 
L 3150 3609 
Q 2809 3803 2406 3803 
Q 2156 3803 1953 3706 
Q 1750 3609 1604 3431 
Q 1459 3253 1376 3001 
Q 1294 2750 1288 2441 
L 1306 2441 
Q 1625 2881 2247 2881 
Q 2525 2881 2750 2781 
Q 2975 2681 3134 2498 
Q 3294 2316 3381 2059 
Q 3469 1803 3469 1491 
z
M 2503 1428 
Q 2503 2150 1913 2150 
Q 1778 2150 1668 2100 
Q 1559 2050 1481 1959 
Q 1403 1869 1361 1745 
Q 1319 1622 1319 1472 
Q 1319 1306 1362 1162 
Q 1406 1019 1486 911 
Q 1566 803 1675 740 
Q 1784 678 1919 678 
Q 2053 678 2161 733 
Q 2269 788 2345 886 
Q 2422 984 2462 1123 
Q 2503 1263 2503 1428 
z
" transform="scale(0.015625)"/>
     </defs>
     <use xlink:href="#SegoeUI-Bold-35"/>
     <use xlink:href="#SegoeUI-Bold-36" transform="translate(57.519531 0)"/>
     <use xlink:href="#SegoeUI-Bold-25" transform="translate(115.039062 0)"/>
    </g>
   </g>
   <g id="text_18">
    <!-- 34% -->
    <g transform="translate(693.131233 249.955233) scale(0.11 -0.11)">
     <defs>
      <path id="SegoeUI-Bold-33" d="M 366 147 
L 366 1006 
Q 816 678 1416 678 
Q 1794 678 2005 840 
Q 2216 1003 2216 1294 
Q 2216 1594 1955 1756 
Q 1694 1919 1238 1919 
L 822 1919 
L 822 2675 
L 1206 2675 
Q 2081 2675 2081 3256 
Q 2081 3803 1409 3803 
Q 959 3803 534 3513 
L 534 4319 
Q 1006 4556 1634 4556 
Q 2322 4556 2705 4247 
Q 3088 3938 3088 3444 
Q 3088 2566 2197 2344 
L 2197 2328 
Q 2672 2269 2947 1983 
Q 3222 1697 3222 1281 
Q 3222 653 2762 287 
Q 2303 -78 1494 -78 
Q 800 -78 366 147 
z
" transform="scale(0.015625)"/>
      <path id="SegoeUI-Bold-34" d="M 2975 4481 
L 2975 1656 
L 3513 1656 
L 3513 919 
L 2975 919 
L 2975 0 
L 2075 0 
L 2075 919 
L 122 919 
L 122 1691 
Q 381 1981 659 2326 
Q 938 2672 1197 3037 
Q 1456 3403 1679 3773 
Q 1903 4144 2059 4481 
L 2975 4481 
z
M 1006 1656 
L 2075 1656 
L 2075 3222 
Q 1966 3019 1837 2811 
Q 1709 2603 1568 2401 
Q 1428 2200 1284 2011 
Q 1141 1822 1006 1656 
z
" transform="scale(0.015625)"/>
     </defs>
     <use xlink:href="#SegoeUI-Bold-33"/>
     <use xlink:href="#SegoeUI-Bold-34" transform="translate(57.519531 0)"/>
     <use xlink:href="#SegoeUI-Bold-25" transform="translate(115.039062 0)"/>
    </g>
   </g>
   <g id="patch_10">
    <path d="M 627.988427 114.358307 
Q 522.593879 100.687361 418.86245 87.232141 
" style="fill: none; stroke: #e69f00; stroke-width: 1.5; stroke-linecap: round"/>
    <path d="M 422.571949 89.730063 
L 418.86245 87.232141 
L 423.086487 85.763295 
" style="fill: none; stroke: #e69f00; stroke-width: 1.5; stroke-linecap: round"/>
   </g>
   <g id="text_19">
    <!-- 91% of medical baseline -->
    <g style="fill: #e69f00" transform="translate(631.974518 119.184445) scale(0.1 -0.1)">
     <defs>
      <path id="SegoeUI-Bold-20" transform="scale(0.015625)"/>
      <path id="SegoeUI-Bold-6f" d="M 1941 -78 
Q 1141 -78 683 370 
Q 225 819 225 1588 
Q 225 2381 700 2829 
Q 1175 3278 1984 3278 
Q 2781 3278 3234 2829 
Q 3688 2381 3688 1644 
Q 3688 847 3220 384 
Q 2753 -78 1941 -78 
z
M 1966 2522 
Q 1616 2522 1422 2281 
Q 1228 2041 1228 1600 
Q 1228 678 1972 678 
Q 2681 678 2681 1625 
Q 2681 2522 1966 2522 
z
" transform="scale(0.015625)"/>
      <path id="SegoeUI-Bold-66" d="M 2503 3981 
Q 2313 4056 2138 4056 
Q 1663 4056 1663 3541 
L 1663 3200 
L 2394 3200 
L 2394 2472 
L 1663 2472 
L 1663 0 
L 678 0 
L 678 2472 
L 141 2472 
L 141 3200 
L 678 3200 
L 678 3597 
Q 678 4144 1034 4478 
Q 1391 4813 2003 4813 
Q 2303 4813 2503 4750 
L 2503 3981 
z
" transform="scale(0.015625)"/>
      <path id="SegoeUI-Bold-6d" d="M 5497 0 
L 4513 0 
L 4513 1825 
Q 4513 2522 4000 2522 
Q 3756 2522 3603 2312 
Q 3450 2103 3450 1791 
L 3450 0 
L 2463 0 
L 2463 1844 
Q 2463 2522 1959 2522 
Q 1706 2522 1554 2322 
Q 1403 2122 1403 1778 
L 1403 0 
L 416 0 
L 416 3200 
L 1403 3200 
L 1403 2700 
L 1416 2700 
Q 1569 2956 1845 3117 
Q 2122 3278 2450 3278 
Q 3128 3278 3378 2681 
Q 3744 3278 4453 3278 
Q 5497 3278 5497 1991 
L 5497 0 
z
" transform="scale(0.015625)"/>
      <path id="SegoeUI-Bold-65" d="M 3291 1319 
L 1203 1319 
Q 1253 622 2081 622 
Q 2609 622 3009 872 
L 3009 159 
Q 2566 -78 1856 -78 
Q 1081 -78 653 351 
Q 225 781 225 1550 
Q 225 2347 687 2812 
Q 1150 3278 1825 3278 
Q 2525 3278 2908 2862 
Q 3291 2447 3291 1734 
L 3291 1319 
z
M 2375 1925 
Q 2375 2613 1819 2613 
Q 1581 2613 1407 2416 
Q 1234 2219 1197 1925 
L 2375 1925 
z
" transform="scale(0.015625)"/>
      <path id="SegoeUI-Bold-64" d="M 3547 0 
L 2559 0 
L 2559 441 
L 2547 441 
Q 2209 -78 1556 -78 
Q 956 -78 590 345 
Q 225 769 225 1528 
Q 225 2322 628 2800 
Q 1031 3278 1684 3278 
Q 2303 3278 2547 2834 
L 2559 2834 
L 2559 4738 
L 3547 4738 
L 3547 0 
z
M 2578 1556 
L 2578 1797 
Q 2578 2109 2397 2315 
Q 2216 2522 1925 2522 
Q 1597 2522 1412 2264 
Q 1228 2006 1228 1556 
Q 1228 1134 1406 906 
Q 1584 678 1900 678 
Q 2200 678 2389 918 
Q 2578 1159 2578 1556 
z
" transform="scale(0.015625)"/>
      <path id="SegoeUI-Bold-69" d="M 916 3706 
Q 666 3706 506 3854 
Q 347 4003 347 4219 
Q 347 4441 506 4581 
Q 666 4722 916 4722 
Q 1169 4722 1326 4581 
Q 1484 4441 1484 4219 
Q 1484 3994 1326 3850 
Q 1169 3706 916 3706 
z
M 1403 0 
L 416 0 
L 416 3200 
L 1403 3200 
L 1403 0 
z
" transform="scale(0.015625)"/>
      <path id="SegoeUI-Bold-63" d="M 2841 116 
Q 2506 -78 1875 -78 
Q 1138 -78 681 369 
Q 225 816 225 1522 
Q 225 2338 714 2808 
Q 1203 3278 2022 3278 
Q 2588 3278 2841 3128 
L 2841 2291 
Q 2531 2522 2150 2522 
Q 1725 2522 1476 2273 
Q 1228 2025 1228 1588 
Q 1228 1163 1465 920 
Q 1703 678 2119 678 
Q 2488 678 2841 909 
L 2841 116 
z
" transform="scale(0.015625)"/>
      <path id="SegoeUI-Bold-61" d="M 3078 0 
L 2144 0 
L 2144 459 
L 2131 459 
Q 1809 -78 1178 -78 
Q 713 -78 445 186 
Q 178 450 178 891 
Q 178 1822 1281 1966 
L 2150 2081 
Q 2150 2606 1581 2606 
Q 1009 2606 494 2266 
L 494 3009 
Q 700 3116 1058 3197 
Q 1416 3278 1709 3278 
Q 3078 3278 3078 1913 
L 3078 0 
z
M 2150 1300 
L 2150 1516 
L 1569 1441 
Q 1088 1378 1088 1006 
Q 1088 838 1205 730 
Q 1322 622 1522 622 
Q 1800 622 1975 814 
Q 2150 1006 2150 1300 
z
" transform="scale(0.015625)"/>
      <path id="SegoeUI-Bold-6c" d="M 1403 0 
L 416 0 
L 416 4738 
L 1403 4738 
L 1403 0 
z
" transform="scale(0.015625)"/>
      <path id="SegoeUI-Bold-62" d="M 1416 372 
L 1403 372 
L 1403 0 
L 416 0 
L 416 4738 
L 1403 4738 
L 1403 2719 
L 1416 2719 
Q 1781 3278 2456 3278 
Q 3075 3278 3409 2853 
Q 3744 2428 3744 1691 
Q 3744 891 3353 406 
Q 2963 -78 2309 -78 
Q 1719 -78 1416 372 
z
M 1388 1722 
L 1388 1394 
Q 1388 1084 1566 881 
Q 1744 678 2022 678 
Q 2359 678 2545 939 
Q 2731 1200 2731 1678 
Q 2731 2075 2561 2298 
Q 2391 2522 2075 2522 
Q 1778 2522 1583 2300 
Q 1388 2078 1388 1722 
z
" transform="scale(0.015625)"/>
      <path id="SegoeUI-Bold-73" d="M 206 84 
L 206 884 
Q 450 738 692 666 
Q 934 594 1150 594 
Q 1413 594 1564 666 
Q 1716 738 1716 884 
Q 1716 978 1647 1040 
Q 1578 1103 1470 1150 
Q 1363 1197 1234 1234 
Q 1106 1272 988 1319 
Q 797 1391 651 1473 
Q 506 1556 407 1665 
Q 309 1775 257 1919 
Q 206 2063 206 2259 
Q 206 2528 323 2722 
Q 441 2916 636 3039 
Q 831 3163 1082 3220 
Q 1334 3278 1606 3278 
Q 1819 3278 2037 3245 
Q 2256 3213 2469 3150 
L 2469 2388 
Q 2281 2497 2067 2551 
Q 1853 2606 1647 2606 
Q 1550 2606 1464 2589 
Q 1378 2572 1312 2539 
Q 1247 2506 1209 2454 
Q 1172 2403 1172 2338 
Q 1172 2250 1228 2187 
Q 1284 2125 1375 2079 
Q 1466 2034 1577 1998 
Q 1688 1963 1797 1925 
Q 1994 1856 2153 1775 
Q 2313 1694 2427 1584 
Q 2541 1475 2602 1328 
Q 2663 1181 2663 978 
Q 2663 694 2539 492 
Q 2416 291 2211 164 
Q 2006 38 1739 -20 
Q 1472 -78 1184 -78 
Q 656 -78 206 84 
z
" transform="scale(0.015625)"/>
      <path id="SegoeUI-Bold-6e" d="M 3506 0 
L 2522 0 
L 2522 1778 
Q 2522 2522 1991 2522 
Q 1734 2522 1568 2325 
Q 1403 2128 1403 1825 
L 1403 0 
L 416 0 
L 416 3200 
L 1403 3200 
L 1403 2694 
L 1416 2694 
Q 1769 3278 2444 3278 
Q 3506 3278 3506 1959 
L 3506 0 
z
" transform="scale(0.015625)"/>
     </defs>
     <use xlink:href="#SegoeUI-Bold-39"/>
     <use xlink:href="#SegoeUI-Bold-31" transform="translate(57.519531 0)"/>
     <use xlink:href="#SegoeUI-Bold-25" transform="translate(115.039062 0)"/>
     <use xlink:href="#SegoeUI-Bold-20" transform="translate(201.757812 0)"/>
     <use xlink:href="#SegoeUI-Bold-6f" transform="translate(229.345703 0)"/>
     <use xlink:href="#SegoeUI-Bold-66" transform="translate(288.978516 0)"/>
     <use xlink:href="#SegoeUI-Bold-20" transform="translate(327.308594 0)"/>
     <use xlink:href="#SegoeUI-Bold-6d" transform="translate(354.896484 0)"/>
     <use xlink:href="#SegoeUI-Bold-65" transform="translate(446.498047 0)"/>
     <use xlink:href="#SegoeUI-Bold-64" transform="translate(500.599609 0)"/>
     <use xlink:href="#SegoeUI-Bold-69" transform="translate(562.513672 0)"/>
     <use xlink:href="#SegoeUI-Bold-63" transform="translate(590.931641 0)"/>
     <use xlink:href="#SegoeUI-Bold-61" transform="translate(638.929688 0)"/>
     <use xlink:href="#SegoeUI-Bold-6c" transform="translate(692.738281 0)"/>
     <use xlink:href="#SegoeUI-Bold-20" transform="translate(721.15625 0)"/>
     <use xlink:href="#SegoeUI-Bold-62" transform="translate(748.744141 0)"/>
     <use xlink:href="#SegoeUI-Bold-61" transform="translate(809.755859 0)"/>
     <use xlink:href="#SegoeUI-Bold-73" transform="translate(863.564453 0)"/>
     <use xlink:href="#SegoeUI-Bold-65" transform="translate(907.558594 0)"/>
     <use xlink:href="#SegoeUI-Bold-6c" transform="translate(961.660156 0)"/>
     <use xlink:href="#SegoeUI-Bold-69" transform="translate(990.078125 0)"/>
     <use xlink:href="#SegoeUI-Bold-6e" transform="translate(1018.496094 0)"/>
     <use xlink:href="#SegoeUI-Bold-65" transform="translate(1078.994141 0)"/>
    </g>
    <!-- exposure exceeds 24h -->
    <g style="fill: #e69f00" transform="translate(631.974518 130.368195) scale(0.1 -0.1)">
     <defs>
      <path id="SegoeUI-Bold-78" d="M 3506 3200 
L 2450 1650 
L 3500 0 
L 2363 0 
L 1900 863 
Q 1844 966 1766 1153 
L 1753 1153 
Q 1706 1022 1625 872 
L 1159 0 
L 25 0 
L 1106 1594 
L 91 3200 
L 1234 3200 
L 1691 2303 
Q 1781 2125 1819 2003 
L 1831 2003 
Q 1881 2150 1966 2309 
L 2431 3200 
L 3506 3200 
z
" transform="scale(0.015625)"/>
      <path id="SegoeUI-Bold-70" d="M 1416 372 
L 1403 372 
L 1403 -1472 
L 416 -1472 
L 416 3200 
L 1403 3200 
L 1403 2719 
L 1416 2719 
Q 1781 3278 2444 3278 
Q 3066 3278 3405 2851 
Q 3744 2425 3744 1691 
Q 3744 891 3348 406 
Q 2953 -78 2297 -78 
Q 1719 -78 1416 372 
z
M 1388 1684 
L 1388 1428 
Q 1388 1097 1563 887 
Q 1738 678 2022 678 
Q 2359 678 2545 939 
Q 2731 1200 2731 1678 
Q 2731 2522 2075 2522 
Q 1772 2522 1580 2292 
Q 1388 2063 1388 1684 
z
" transform="scale(0.015625)"/>
      <path id="SegoeUI-Bold-75" d="M 3456 0 
L 2472 0 
L 2472 488 
L 2456 488 
Q 2091 -78 1478 -78 
Q 366 -78 366 1269 
L 366 3200 
L 1350 3200 
L 1350 1356 
Q 1350 678 1888 678 
Q 2153 678 2312 864 
Q 2472 1050 2472 1369 
L 2472 3200 
L 3456 3200 
L 3456 0 
z
" transform="scale(0.015625)"/>
      <path id="SegoeUI-Bold-72" d="M 2503 2309 
Q 2325 2406 2088 2406 
Q 1766 2406 1584 2170 
Q 1403 1934 1403 1528 
L 1403 0 
L 416 0 
L 416 3200 
L 1403 3200 
L 1403 2606 
L 1416 2606 
Q 1650 3256 2259 3256 
Q 2416 3256 2503 3219 
L 2503 2309 
z
" transform="scale(0.015625)"/>
      <path id="SegoeUI-Bold-32" d="M 1341 819 
L 3241 819 
L 3241 0 
L 259 0 
L 259 338 
Q 259 681 375 954 
Q 491 1228 666 1445 
Q 841 1663 1048 1830 
Q 1256 1997 1444 2131 
Q 1641 2272 1789 2400 
Q 1938 2528 2039 2654 
Q 2141 2781 2191 2911 
Q 2241 3041 2241 3188 
Q 2241 3475 2078 3622 
Q 1916 3769 1581 3769 
Q 1003 3769 475 3309 
L 475 4178 
Q 1059 4556 1794 4556 
Q 2134 4556 2404 4467 
Q 2675 4378 2862 4212 
Q 3050 4047 3148 3811 
Q 3247 3575 3247 3284 
Q 3247 2975 3151 2734 
Q 3056 2494 2898 2297 
Q 2741 2100 2534 1936 
Q 2328 1772 2106 1619 
Q 1956 1513 1817 1408 
Q 1678 1303 1572 1201 
Q 1466 1100 1403 1003 
Q 1341 906 1341 819 
z
" transform="scale(0.015625)"/>
      <path id="SegoeUI-Bold-68" d="M 3488 0 
L 2503 0 
L 2503 1819 
Q 2503 2522 1991 2522 
Q 1728 2522 1565 2325 
Q 1403 2128 1403 1825 
L 1403 0 
L 416 0 
L 416 4738 
L 1403 4738 
L 1403 2725 
L 1416 2725 
Q 1778 3278 2400 3278 
Q 3488 3278 3488 1966 
L 3488 0 
z
" transform="scale(0.015625)"/>
     </defs>
     <use xlink:href="#SegoeUI-Bold-65"/>
     <use xlink:href="#SegoeUI-Bold-78" transform="translate(54.101562 0)"/>
     <use xlink:href="#SegoeUI-Bold-70" transform="translate(109.326172 0)"/>
     <use xlink:href="#SegoeUI-Bold-6f" transform="translate(171.337891 0)"/>
     <use xlink:href="#SegoeUI-Bold-73" transform="translate(232.470703 0)"/>
     <use xlink:href="#SegoeUI-Bold-75" transform="translate(276.464844 0)"/>
     <use xlink:href="#SegoeUI-Bold-72" transform="translate(336.962891 0)"/>
     <use xlink:href="#SegoeUI-Bold-65" transform="translate(376.382812 0)"/>
     <use xlink:href="#SegoeUI-Bold-20" transform="translate(430.484375 0)"/>
     <use xlink:href="#SegoeUI-Bold-65" transform="translate(458.072266 0)"/>
     <use xlink:href="#SegoeUI-Bold-78" transform="translate(512.173828 0)"/>
     <use xlink:href="#SegoeUI-Bold-63" transform="translate(565.648438 0)"/>
     <use xlink:href="#SegoeUI-Bold-65" transform="translate(613.646484 0)"/>
     <use xlink:href="#SegoeUI-Bold-65" transform="translate(667.748047 0)"/>
     <use xlink:href="#SegoeUI-Bold-64" transform="translate(721.849609 0)"/>
     <use xlink:href="#SegoeUI-Bold-73" transform="translate(783.763672 0)"/>
     <use xlink:href="#SegoeUI-Bold-20" transform="translate(827.757812 0)"/>
     <use xlink:href="#SegoeUI-Bold-32" transform="translate(855.345703 0)"/>
     <use xlink:href="#SegoeUI-Bold-34" transform="translate(912.865234 0)"/>
     <use xlink:href="#SegoeUI-Bold-68" transform="translate(970.384766 0)"/>
    </g>
   </g>
   <g id="text_20">
    <!-- Medical Baseline Customer Exposure by Duration -->
    <g transform="translate(236.973125 22.645) scale(0.16 -0.16)">
     <defs>
      <path id="SegoeUI-Semibold-4d" d="M 5366 0 
L 4628 0 
L 4628 2900 
Q 4628 3256 4672 3772 
L 4659 3772 
Q 4591 3478 4538 3350 
L 3200 0 
L 2688 0 
L 1347 3325 
Q 1291 3472 1228 3772 
L 1216 3772 
Q 1241 3503 1241 2894 
L 1241 0 
L 553 0 
L 553 4481 
L 1600 4481 
L 2778 1497 
Q 2913 1153 2953 984 
L 2969 984 
Q 3084 1338 3156 1509 
L 4356 4481 
L 5366 4481 
L 5366 0 
z
" transform="scale(0.015625)"/>
      <path id="SegoeUI-Semibold-65" d="M 3181 1403 
L 1000 1403 
Q 1013 959 1273 718 
Q 1534 478 1991 478 
Q 2503 478 2931 784 
L 2931 200 
Q 2494 -75 1775 -75 
Q 1069 -75 667 361 
Q 266 797 266 1588 
Q 266 2334 708 2804 
Q 1150 3275 1806 3275 
Q 2463 3275 2822 2853 
Q 3181 2431 3181 1681 
L 3181 1403 
z
M 2481 1916 
Q 2478 2306 2297 2523 
Q 2116 2741 1797 2741 
Q 1484 2741 1267 2512 
Q 1050 2284 1000 1916 
L 2481 1916 
z
" transform="scale(0.015625)"/>
      <path id="SegoeUI-Semibold-64" d="M 3381 0 
L 2656 0 
L 2656 544 
L 2644 544 
Q 2294 -75 1566 -75 
Q 975 -75 620 354 
Q 266 784 266 1525 
Q 266 2319 658 2797 
Q 1050 3275 1703 3275 
Q 2350 3275 2644 2756 
L 2656 2756 
L 2656 4738 
L 3381 4738 
L 3381 0 
z
M 2666 1463 
L 2666 1881 
Q 2666 2222 2444 2459 
Q 2222 2697 1878 2697 
Q 1472 2697 1239 2394 
Q 1006 2091 1006 1553 
Q 1006 1066 1229 783 
Q 1453 500 1831 500 
Q 2203 500 2434 773 
Q 2666 1047 2666 1463 
z
" transform="scale(0.015625)"/>
      <path id="SegoeUI-Semibold-69" d="M 838 3872 
Q 659 3872 532 3987 
Q 406 4103 406 4281 
Q 406 4459 532 4578 
Q 659 4697 838 4697 
Q 1022 4697 1150 4578 
Q 1278 4459 1278 4281 
Q 1278 4113 1150 3992 
Q 1022 3872 838 3872 
z
M 1197 0 
L 472 0 
L 472 3200 
L 1197 3200 
L 1197 0 
z
" transform="scale(0.015625)"/>
      <path id="SegoeUI-Semibold-63" d="M 2763 147 
Q 2378 -75 1853 -75 
Q 1141 -75 703 370 
Q 266 816 266 1525 
Q 266 2316 736 2795 
Q 1206 3275 1994 3275 
Q 2431 3275 2766 3122 
L 2766 2447 
Q 2431 2697 2053 2697 
Q 1594 2697 1300 2386 
Q 1006 2075 1006 1572 
Q 1006 1075 1282 787 
Q 1559 500 2025 500 
Q 2416 500 2763 778 
L 2763 147 
z
" transform="scale(0.015625)"/>
      <path id="SegoeUI-Semibold-61" d="M 2928 0 
L 2225 0 
L 2225 500 
L 2213 500 
Q 1881 -75 1241 -75 
Q 769 -75 501 181 
Q 234 438 234 859 
Q 234 1766 1278 1916 
L 2228 2050 
Q 2228 2734 1578 2734 
Q 1006 2734 547 2341 
L 547 2975 
Q 1053 3275 1716 3275 
Q 2928 3275 2928 2081 
L 2928 0 
z
M 2228 1572 
L 1556 1478 
Q 1244 1438 1086 1327 
Q 928 1216 928 938 
Q 928 734 1073 604 
Q 1219 475 1463 475 
Q 1794 475 2011 708 
Q 2228 941 2228 1294 
L 2228 1572 
z
" transform="scale(0.015625)"/>
      <path id="SegoeUI-Semibold-6c" d="M 1200 0 
L 472 0 
L 472 4738 
L 1200 4738 
L 1200 0 
z
" transform="scale(0.015625)"/>
      <path id="SegoeUI-Semibold-20" transform="scale(0.015625)"/>
      <path id="SegoeUI-Semibold-42" d="M 553 0 
L 553 4481 
L 1975 4481 
Q 2625 4481 3004 4197 
Q 3384 3913 3384 3456 
Q 3384 3075 3168 2794 
Q 2953 2513 2572 2394 
L 2572 2381 
Q 3034 2328 3311 2039 
Q 3588 1750 3588 1288 
Q 3588 713 3134 356 
Q 2681 0 1991 0 
L 553 0 
z
M 1294 3884 
L 1294 2609 
L 1775 2609 
Q 2163 2609 2383 2792 
Q 2603 2975 2603 3309 
Q 2603 3884 1834 3884 
L 1294 3884 
z
M 1294 2013 
L 1294 594 
L 1928 594 
Q 2344 594 2570 786 
Q 2797 978 2797 1316 
Q 2797 2013 1831 2013 
L 1294 2013 
z
" transform="scale(0.015625)"/>
      <path id="SegoeUI-Semibold-73" d="M 272 100 
L 272 772 
Q 678 463 1169 463 
Q 1825 463 1825 850 
Q 1825 959 1769 1036 
Q 1713 1113 1617 1172 
Q 1522 1231 1392 1278 
Q 1263 1325 1103 1384 
Q 906 1463 748 1550 
Q 591 1638 486 1748 
Q 381 1859 328 2000 
Q 275 2141 275 2328 
Q 275 2559 384 2736 
Q 494 2913 678 3033 
Q 863 3153 1097 3214 
Q 1331 3275 1581 3275 
Q 2025 3275 2375 3141 
L 2375 2506 
Q 2038 2738 1600 2738 
Q 1463 2738 1352 2709 
Q 1241 2681 1162 2631 
Q 1084 2581 1040 2511 
Q 997 2441 997 2356 
Q 997 2253 1040 2181 
Q 1084 2109 1170 2054 
Q 1256 2000 1376 1954 
Q 1497 1909 1653 1856 
Q 1859 1772 2023 1684 
Q 2188 1597 2303 1486 
Q 2419 1375 2481 1229 
Q 2544 1084 2544 884 
Q 2544 641 2431 459 
Q 2319 278 2131 159 
Q 1944 41 1698 -17 
Q 1453 -75 1181 -75 
Q 656 -75 272 100 
z
" transform="scale(0.015625)"/>
      <path id="SegoeUI-Semibold-6e" d="M 3322 0 
L 2597 0 
L 2597 1803 
Q 2597 2700 1963 2700 
Q 1631 2700 1415 2451 
Q 1200 2203 1200 1825 
L 1200 0 
L 472 0 
L 472 3200 
L 1200 3200 
L 1200 2669 
L 1213 2669 
Q 1572 3275 2250 3275 
Q 2772 3275 3047 2936 
Q 3322 2597 3322 1956 
L 3322 0 
z
" transform="scale(0.015625)"/>
      <path id="SegoeUI-Semibold-43" d="M 3678 188 
Q 3172 -75 2419 -75 
Q 1444 -75 856 540 
Q 269 1156 269 2156 
Q 269 3231 930 3893 
Q 1591 4556 2600 4556 
Q 3250 4556 3678 4372 
L 3678 3634 
Q 3225 3903 2678 3903 
Q 1950 3903 1498 3437 
Q 1047 2972 1047 2194 
Q 1047 1453 1469 1014 
Q 1891 575 2578 575 
Q 3213 575 3678 875 
L 3678 188 
z
" transform="scale(0.015625)"/>
      <path id="SegoeUI-Semibold-75" d="M 3263 0 
L 2538 0 
L 2538 506 
L 2525 506 
Q 2209 -75 1544 -75 
Q 409 -75 409 1288 
L 409 3200 
L 1134 3200 
L 1134 1363 
Q 1134 500 1800 500 
Q 2122 500 2330 737 
Q 2538 975 2538 1359 
L 2538 3200 
L 3263 3200 
L 3263 0 
z
" transform="scale(0.015625)"/>
      <path id="SegoeUI-Semibold-74" d="M 2159 34 
Q 1947 -72 1600 -72 
Q 669 -72 669 822 
L 669 2631 
L 134 2631 
L 134 3200 
L 669 3200 
L 669 3941 
L 1394 4147 
L 1394 3200 
L 2159 3200 
L 2159 2631 
L 1394 2631 
L 1394 1031 
Q 1394 747 1497 625 
Q 1600 503 1841 503 
Q 2025 503 2159 609 
L 2159 34 
z
" transform="scale(0.015625)"/>
      <path id="SegoeUI-Semibold-6f" d="M 1891 -75 
Q 1150 -75 708 373 
Q 266 822 266 1563 
Q 266 2369 727 2822 
Q 1188 3275 1969 3275 
Q 2719 3275 3137 2834 
Q 3556 2394 3556 1613 
Q 3556 847 3104 386 
Q 2653 -75 1891 -75 
z
M 1925 2697 
Q 1500 2697 1253 2400 
Q 1006 2103 1006 1581 
Q 1006 1078 1256 789 
Q 1506 500 1925 500 
Q 2353 500 2583 784 
Q 2813 1069 2813 1594 
Q 2813 2122 2583 2409 
Q 2353 2697 1925 2697 
z
" transform="scale(0.015625)"/>
      <path id="SegoeUI-Semibold-6d" d="M 5256 0 
L 4531 0 
L 4531 1744 
Q 4531 2247 4389 2472 
Q 4247 2697 3909 2697 
Q 3625 2697 3426 2412 
Q 3228 2128 3228 1731 
L 3228 0 
L 2500 0 
L 2500 1803 
Q 2500 2697 1869 2697 
Q 1575 2697 1386 2428 
Q 1197 2159 1197 1731 
L 1197 0 
L 472 0 
L 472 3200 
L 1197 3200 
L 1197 2694 
L 1209 2694 
Q 1556 3275 2219 3275 
Q 2550 3275 2798 3092 
Q 3047 2909 3138 2613 
Q 3494 3275 4200 3275 
Q 5256 3275 5256 1972 
L 5256 0 
z
" transform="scale(0.015625)"/>
      <path id="SegoeUI-Semibold-72" d="M 2328 2509 
Q 2197 2613 1950 2613 
Q 1628 2613 1412 2322 
Q 1197 2031 1197 1531 
L 1197 0 
L 472 0 
L 472 3200 
L 1197 3200 
L 1197 2541 
L 1209 2541 
Q 1316 2878 1536 3067 
Q 1756 3256 2028 3256 
Q 2225 3256 2328 3197 
L 2328 2509 
z
" transform="scale(0.015625)"/>
      <path id="SegoeUI-Semibold-45" d="M 3069 0 
L 553 0 
L 553 4481 
L 2969 4481 
L 2969 3850 
L 1297 3850 
L 1297 2581 
L 2838 2581 
L 2838 1953 
L 1297 1953 
L 1297 628 
L 3069 628 
L 3069 0 
z
" transform="scale(0.015625)"/>
      <path id="SegoeUI-Semibold-78" d="M 3147 3200 
L 2081 1581 
L 3134 0 
L 2294 0 
L 1731 991 
Q 1678 1081 1606 1222 
L 1594 1222 
Q 1581 1194 1463 991 
L 891 0 
L 53 0 
L 1141 1569 
L 109 3200 
L 953 3200 
L 1506 2159 
Q 1569 2044 1628 1922 
L 1638 1922 
L 2353 3200 
L 3147 3200 
z
" transform="scale(0.015625)"/>
      <path id="SegoeUI-Semibold-70" d="M 1209 472 
L 1197 472 
L 1197 -1472 
L 472 -1472 
L 472 3200 
L 1197 3200 
L 1197 2638 
L 1209 2638 
Q 1581 3275 2297 3275 
Q 2906 3275 3247 2847 
Q 3588 2419 3588 1697 
Q 3588 897 3203 415 
Q 2819 -66 2153 -66 
Q 1541 -66 1209 472 
z
M 1191 1734 
L 1191 1338 
Q 1191 988 1414 744 
Q 1638 500 1981 500 
Q 2384 500 2614 814 
Q 2844 1128 2844 1691 
Q 2844 2163 2630 2430 
Q 2416 2697 2050 2697 
Q 1663 2697 1427 2422 
Q 1191 2147 1191 1734 
z
" transform="scale(0.015625)"/>
      <path id="SegoeUI-Semibold-62" d="M 1209 463 
L 1197 463 
L 1197 0 
L 472 0 
L 472 4738 
L 1197 4738 
L 1197 2638 
L 1209 2638 
Q 1581 3275 2297 3275 
Q 2903 3275 3245 2845 
Q 3588 2416 3588 1694 
Q 3588 891 3203 408 
Q 2819 -75 2153 -75 
Q 1528 -75 1209 463 
z
M 1191 1734 
L 1191 1338 
Q 1191 988 1414 744 
Q 1638 500 1981 500 
Q 2384 500 2614 814 
Q 2844 1128 2844 1691 
Q 2844 2163 2630 2430 
Q 2416 2697 2050 2697 
Q 1663 2697 1427 2422 
Q 1191 2147 1191 1734 
z
" transform="scale(0.015625)"/>
      <path id="SegoeUI-Semibold-79" d="M 3244 3200 
L 1800 -513 
Q 1350 -1506 538 -1506 
Q 309 -1506 156 -1466 
L 156 -863 
Q 328 -919 469 -919 
Q 875 -919 1075 -519 
L 1291 6 
L 19 3200 
L 822 3200 
L 1584 875 
Q 1597 831 1641 644 
L 1656 644 
Q 1672 716 1713 869 
L 2513 3200 
L 3244 3200 
z
" transform="scale(0.015625)"/>
      <path id="SegoeUI-Semibold-44" d="M 553 0 
L 553 4481 
L 1847 4481 
Q 4325 4481 4325 2297 
Q 4325 1259 3637 629 
Q 2950 0 1794 0 
L 553 0 
z
M 1294 3850 
L 1294 628 
L 1888 628 
Q 2672 628 3108 1059 
Q 3544 1491 3544 2278 
Q 3544 3850 1916 3850 
L 1294 3850 
z
" transform="scale(0.015625)"/>
     </defs>
     <use xlink:href="#SegoeUI-Semibold-4d"/>
     <use xlink:href="#SegoeUI-Semibold-65" transform="translate(92.431641 0)"/>
     <use xlink:href="#SegoeUI-Semibold-64" transform="translate(145.556641 0)"/>
     <use xlink:href="#SegoeUI-Semibold-69" transform="translate(205.810547 0)"/>
     <use xlink:href="#SegoeUI-Semibold-63" transform="translate(231.933594 0)"/>
     <use xlink:href="#SegoeUI-Semibold-61" transform="translate(278.955078 0)"/>
     <use xlink:href="#SegoeUI-Semibold-6c" transform="translate(331.152344 0)"/>
     <use xlink:href="#SegoeUI-Semibold-20" transform="translate(357.275391 0)"/>
     <use xlink:href="#SegoeUI-Semibold-42" transform="translate(384.765625 0)"/>
     <use xlink:href="#SegoeUI-Semibold-61" transform="translate(445.166016 0)"/>
     <use xlink:href="#SegoeUI-Semibold-73" transform="translate(497.363281 0)"/>
     <use xlink:href="#SegoeUI-Semibold-65" transform="translate(540.478516 0)"/>
     <use xlink:href="#SegoeUI-Semibold-6c" transform="translate(593.603516 0)"/>
     <use xlink:href="#SegoeUI-Semibold-69" transform="translate(619.726562 0)"/>
     <use xlink:href="#SegoeUI-Semibold-6e" transform="translate(645.849609 0)"/>
     <use xlink:href="#SegoeUI-Semibold-65" transform="translate(704.199219 0)"/>
     <use xlink:href="#SegoeUI-Semibold-20" transform="translate(757.324219 0)"/>
     <use xlink:href="#SegoeUI-Semibold-43" transform="translate(784.814453 0)"/>
     <use xlink:href="#SegoeUI-Semibold-75" transform="translate(846.923828 0)"/>
     <use xlink:href="#SegoeUI-Semibold-73" transform="translate(905.273438 0)"/>
     <use xlink:href="#SegoeUI-Semibold-74" transform="translate(948.388672 0)"/>
     <use xlink:href="#SegoeUI-Semibold-6f" transform="translate(983.896484 0)"/>
     <use xlink:href="#SegoeUI-Semibold-6d" transform="translate(1043.613281 0)"/>
     <use xlink:href="#SegoeUI-Semibold-65" transform="translate(1132.1875 0)"/>
     <use xlink:href="#SegoeUI-Semibold-72" transform="translate(1185.3125 0)"/>
     <use xlink:href="#SegoeUI-Semibold-20" transform="translate(1222.324219 0)"/>
     <use xlink:href="#SegoeUI-Semibold-45" transform="translate(1249.814453 0)"/>
     <use xlink:href="#SegoeUI-Semibold-78" transform="translate(1301.572266 0)"/>
     <use xlink:href="#SegoeUI-Semibold-70" transform="translate(1351.669922 0)"/>
     <use xlink:href="#SegoeUI-Semibold-6f" transform="translate(1411.923828 0)"/>
     <use xlink:href="#SegoeUI-Semibold-73" transform="translate(1471.640625 0)"/>
     <use xlink:href="#SegoeUI-Semibold-75" transform="translate(1514.755859 0)"/>
     <use xlink:href="#SegoeUI-Semibold-72" transform="translate(1573.105469 0)"/>
     <use xlink:href="#SegoeUI-Semibold-65" transform="translate(1609.242188 0)"/>
     <use xlink:href="#SegoeUI-Semibold-20" transform="translate(1662.367188 0)"/>
     <use xlink:href="#SegoeUI-Semibold-62" transform="translate(1689.857422 0)"/>
     <use xlink:href="#SegoeUI-Semibold-79" transform="translate(1750.111328 0)"/>
     <use xlink:href="#SegoeUI-Semibold-20" transform="translate(1800.941406 0)"/>
     <use xlink:href="#SegoeUI-Semibold-44" transform="translate(1828.431641 0)"/>
     <use xlink:href="#SegoeUI-Semibold-75" transform="translate(1900.160156 0)"/>
     <use xlink:href="#SegoeUI-Semibold-72" transform="translate(1958.509766 0)"/>
     <use xlink:href="#SegoeUI-Semibold-61" transform="translate(1995.521484 0)"/>
     <use xlink:href="#SegoeUI-Semibold-74" transform="translate(2047.71875 0)"/>
     <use xlink:href="#SegoeUI-Semibold-69" transform="translate(2083.851562 0)"/>
     <use xlink:href="#SegoeUI-Semibold-6f" transform="translate(2109.974609 0)"/>
     <use xlink:href="#SegoeUI-Semibold-6e" transform="translate(2169.691406 0)"/>
    </g>
   </g>
  </g>
 </g>
 <defs>
  <clipPath id="p988750274a">
   <rect x="49.615625" y="32.645" width="731.2" height="319.8"/>
  </clipPath>
 </defs>
</svg>
