<?xml version="1.0" encoding="utf-8" standalone="no"?>
<!DOCTYPE svg PUBLIC "-//W3C//DTD SVG 1.1//EN"
  "http://www.w3.org/Graphics/SVG/1.1/DTD/svg11.dtd">
<svg xmlns:xlink="http://www.w3.org/1999/xlink" width="791.679375pt" height="395.591875pt" viewBox="0 0 791.679375 395.591875" xmlns="http://www.w3.org/2000/svg" version="1.1">
 <metadata>
  <rdf:RDF xmlns:dc="http://purl.org/dc/elements/1.1/" xmlns:cc="http://creativecommons.org/ns#" xmlns:rdf="http://www.w3.org/1999/02/22-rdf-syntax-ns#">
   <cc:Work>
    <dc:type rdf:resource="http://purl.org/dc/dcmitype/StillImage"/>
    <dc:date>2026-01-30T16:16:34.583733</dc:date>
    <dc:format>image/svg+xml</dc:format>
    <dc:creator>
     <cc:Agent>
      <dc:title>Matplotlib v3.10.0, https://matplotlib.org/</dc:title>
     </cc:Agent>
    </dc:creator>
   </cc:Work>
  </rdf:RDF>
 </metadata>
 <defs>
  <style type="text/css">*{stroke-linejoin: round; stroke-linecap: butt}</style>
 </defs>
 <g id="figure_1">
  <g id="patch_1">
   <path d="M 0 395.591875 
L 791.679375 395.591875 
L 791.679375 -0 
L 0 -0 
z
" style="fill: #ffffff"/>
  </g>
  <g id="axes_1">
   <g id="patch_2">
    <path d="M 49.679375 352.445 
L 780.879375 352.445 
L 780.879375 32.645 
L 49.679375 32.645 
z
" style="fill: #ffffff"/>
   </g>
   <g id="line2d_1">
    <path d="M 49.679375 134.270333 
L 780.879375 134.270333 
" clip-path="url(#p5a6477a65f)" style="fill: none; stroke-dasharray: 1.8,2.97; stroke-dashoffset: 0; stroke: #d55e00; stroke-opacity: 0.5; stroke-width: 1.8"/>
   </g>
   <g id="line2d_2">
    <path d="M 348.806648 352.445 
L 348.806648 32.645 
" clip-path="url(#p5a6477a65f)" style="fill: none; stroke-dasharray: 4.44,1.92; stroke-dashoffset: 0; stroke: #0072b2; stroke-opacity: 0.4; stroke-width: 1.2"/>
   </g>
   <g id="line2d_3">
    <path d="M 481.752102 352.445 
L 481.752102 32.645 
" clip-path="url(#p5a6477a65f)" style="fill: none; stroke-dasharray: 4.44,1.92; stroke-dashoffset: 0; stroke: #009e73; stroke-opacity: 0.4; stroke-width: 1.2"/>
   </g>
   <g id="matplotlib.axis_1">
    <g id="xtick_1">
     <g id="line2d_4">
      <defs>
       <path id="m6628965141" d="M 0 0 
L 0 3.5 
" style="stroke: #000000; stroke-width: 0.8"/>
      </defs>
      <g>
       <use xlink:href="#m6628965141" x="82.915739" y="352.445" style="stroke: #000000; stroke-width: 0.8"/>
      </g>
     </g>
     <g id="text_1">
      <!-- 2015 -->
      <g transform="translate(72.134489 366.848125) scale(0.1 -0.1)">
       <defs>
        <path id="SegoeUI-32" d="M 2413 3306 
Q 2413 3513 2348 3666 
Q 2284 3819 2173 3920 
Q 2063 4022 1913 4072 
Q 1763 4122 1588 4122 
Q 1438 4122 1294 4081 
Q 1150 4041 1014 3969 
Q 878 3897 751 3797 
Q 625 3697 516 3575 
L 516 4125 
Q 731 4334 998 4445 
Q 1266 4556 1650 4556 
Q 1925 4556 2159 4476 
Q 2394 4397 2566 4244 
Q 2738 4091 2836 3866 
Q 2934 3641 2934 3350 
Q 2934 3084 2873 2868 
Q 2813 2653 2689 2462 
Q 2566 2272 2378 2097 
Q 2191 1922 1938 1741 
Q 1622 1516 1417 1356 
Q 1213 1197 1092 1058 
Q 972 919 923 780 
Q 875 641 875 459 
L 3106 459 
L 3106 0 
L 341 0 
L 341 222 
Q 341 509 403 728 
Q 466 947 609 1144 
Q 753 1341 986 1537 
Q 1219 1734 1556 1981 
Q 1800 2156 1964 2315 
Q 2128 2475 2228 2634 
Q 2328 2794 2370 2958 
Q 2413 3122 2413 3306 
z
" transform="scale(0.015625)"/>
        <path id="SegoeUI-30" d="M 3188 2259 
Q 3188 1697 3086 1262 
Q 2984 828 2792 529 
Q 2600 231 2320 76 
Q 2041 -78 1684 -78 
Q 1347 -78 1083 70 
Q 819 219 637 503 
Q 456 788 362 1202 
Q 269 1616 269 2150 
Q 269 2738 367 3188 
Q 466 3638 656 3942 
Q 847 4247 1130 4401 
Q 1413 4556 1778 4556 
Q 3188 4556 3188 2259 
z
M 2663 2209 
Q 2663 4122 1753 4122 
Q 794 4122 794 2175 
Q 794 359 1734 359 
Q 2663 359 2663 2209 
z
" transform="scale(0.015625)"/>
        <path id="SegoeUI-31" d="M 2263 0 
L 1750 0 
L 1750 3872 
Q 1691 3813 1577 3736 
Q 1463 3659 1320 3584 
Q 1178 3509 1020 3443 
Q 863 3378 713 3341 
L 713 3859 
Q 881 3906 1070 3986 
Q 1259 4066 1442 4164 
Q 1625 4263 1787 4370 
Q 1950 4478 2069 4581 
L 2263 4581 
L 2263 0 
z
" transform="scale(0.015625)"/>
        <path id="SegoeUI-35" d="M 3028 1369 
Q 3028 1041 2915 775 
Q 2803 509 2595 318 
Q 2388 128 2094 25 
Q 1800 -78 1441 -78 
Q 816 -78 513 109 
L 513 653 
Q 969 359 1447 359 
Q 1691 359 1886 431 
Q 2081 503 2218 631 
Q 2356 759 2429 940 
Q 2503 1122 2503 1338 
Q 2503 1775 2209 2023 
Q 1916 2272 1356 2272 
Q 1266 2272 1166 2269 
Q 1066 2266 966 2261 
Q 866 2256 770 2250 
Q 675 2244 597 2234 
L 750 4481 
L 2822 4481 
L 2822 4019 
L 1194 4019 
L 1103 2703 
Q 1203 2709 1315 2714 
Q 1428 2719 1516 2719 
Q 1872 2719 2153 2625 
Q 2434 2531 2629 2357 
Q 2825 2184 2926 1932 
Q 3028 1681 3028 1369 
z
" transform="scale(0.015625)"/>
       </defs>
       <use xlink:href="#SegoeUI-32"/>
       <use xlink:href="#SegoeUI-30" transform="translate(53.90625 0)"/>
       <use xlink:href="#SegoeUI-31" transform="translate(107.8125 0)"/>
       <use xlink:href="#SegoeUI-35" transform="translate(161.71875 0)"/>
      </g>
     </g>
    </g>
    <g id="xtick_2">
     <g id="line2d_5">
      <g>
       <use xlink:href="#m6628965141" x="149.388466" y="352.445" style="stroke: #000000; stroke-width: 0.8"/>
      </g>
     </g>
     <g id="text_2">
      <!-- 2016 -->
      <g transform="translate(138.607216 366.848125) scale(0.1 -0.1)">
       <defs>
        <path id="SegoeUI-36" d="M 3194 1422 
Q 3194 1094 3087 819 
Q 2981 544 2793 344 
Q 2606 144 2347 33 
Q 2088 -78 1784 -78 
Q 1447 -78 1180 62 
Q 913 203 727 467 
Q 541 731 444 1112 
Q 347 1494 347 1972 
Q 347 2556 476 3032 
Q 606 3509 845 3848 
Q 1084 4188 1421 4372 
Q 1759 4556 2175 4556 
Q 2638 4556 2919 4428 
L 2919 3944 
Q 2572 4122 2188 4122 
Q 1888 4122 1647 3987 
Q 1406 3853 1234 3608 
Q 1063 3363 970 3016 
Q 878 2669 878 2244 
L 891 2244 
Q 1200 2803 1913 2803 
Q 2206 2803 2442 2703 
Q 2678 2603 2845 2420 
Q 3013 2238 3103 1984 
Q 3194 1731 3194 1422 
z
M 2669 1356 
Q 2669 1591 2609 1778 
Q 2550 1966 2439 2097 
Q 2328 2228 2165 2298 
Q 2003 2369 1797 2369 
Q 1606 2369 1443 2297 
Q 1281 2225 1162 2101 
Q 1044 1978 976 1814 
Q 909 1650 909 1466 
Q 909 1234 975 1032 
Q 1041 831 1159 681 
Q 1278 531 1442 445 
Q 1606 359 1806 359 
Q 2000 359 2159 432 
Q 2319 506 2431 637 
Q 2544 769 2606 951 
Q 2669 1134 2669 1356 
z
" transform="scale(0.015625)"/>
       </defs>
       <use xlink:href="#SegoeUI-32"/>
       <use xlink:href="#SegoeUI-30" transform="translate(53.90625 0)"/>
       <use xlink:href="#SegoeUI-31" transform="translate(107.8125 0)"/>
       <use xlink:href="#SegoeUI-36" transform="translate(161.71875 0)"/>
      </g>
     </g>
    </g>
    <g id="xtick_3">
     <g id="line2d_6">
      <g>
       <use xlink:href="#m6628965141" x="215.861193" y="352.445" style="stroke: #000000; stroke-width: 0.8"/>
      </g>
     </g>
     <g id="text_3">
      <!-- 2017 -->
      <g transform="translate(205.079943 366.848125) scale(0.1 -0.1)">
       <defs>
        <path id="SegoeUI-37" d="M 3156 4184 
Q 3053 4006 2908 3740 
Q 2763 3475 2600 3144 
Q 2438 2813 2269 2431 
Q 2100 2050 1953 1644 
Q 1806 1238 1695 820 
Q 1584 403 1534 0 
L 984 0 
Q 1041 400 1158 817 
Q 1275 1234 1423 1636 
Q 1572 2038 1737 2409 
Q 1903 2781 2059 3093 
Q 2216 3406 2345 3645 
Q 2475 3884 2553 4019 
L 306 4019 
L 306 4481 
L 3156 4481 
L 3156 4184 
z
" transform="scale(0.015625)"/>
       </defs>
       <use xlink:href="#SegoeUI-32"/>
       <use xlink:href="#SegoeUI-30" transform="translate(53.90625 0)"/>
       <use xlink:href="#SegoeUI-31" transform="translate(107.8125 0)"/>
       <use xlink:href="#SegoeUI-37" transform="translate(161.71875 0)"/>
      </g>
     </g>
    </g>
    <g id="xtick_4">
     <g id="line2d_7">
      <g>
       <use xlink:href="#m6628965141" x="282.33392" y="352.445" style="stroke: #000000; stroke-width: 0.8"/>
      </g>
     </g>
     <g id="text_4">
      <!-- 2018 -->
      <g transform="translate(271.55267 366.848125) scale(0.1 -0.1)">
       <defs>
        <path id="SegoeUI-38" d="M 281 1250 
Q 281 1428 337 1608 
Q 394 1788 498 1944 
Q 603 2100 758 2228 
Q 913 2356 1109 2431 
Q 819 2594 647 2848 
Q 475 3103 475 3413 
Q 475 3659 570 3868 
Q 666 4078 834 4231 
Q 1003 4384 1234 4470 
Q 1466 4556 1734 4556 
Q 2006 4556 2237 4468 
Q 2469 4381 2637 4228 
Q 2806 4075 2900 3865 
Q 2994 3656 2994 3413 
Q 2994 3103 2822 2848 
Q 2650 2594 2366 2431 
Q 2559 2356 2712 2228 
Q 2866 2100 2970 1944 
Q 3075 1788 3131 1608 
Q 3188 1428 3188 1250 
Q 3188 956 3081 712 
Q 2975 469 2783 295 
Q 2591 122 2323 25 
Q 2056 -72 1734 -72 
Q 1416 -72 1150 25 
Q 884 122 690 295 
Q 497 469 389 712 
Q 281 956 281 1250 
z
M 838 1294 
Q 838 1084 902 915 
Q 966 747 1083 628 
Q 1200 509 1367 445 
Q 1534 381 1738 381 
Q 1934 381 2100 447 
Q 2266 513 2386 631 
Q 2506 750 2573 919 
Q 2641 1088 2641 1294 
Q 2641 1481 2577 1645 
Q 2513 1809 2394 1934 
Q 2275 2059 2109 2131 
Q 1944 2203 1738 2203 
Q 1544 2203 1380 2136 
Q 1216 2069 1095 1948 
Q 975 1828 906 1661 
Q 838 1494 838 1294 
z
M 997 3372 
Q 997 3213 1055 3077 
Q 1113 2941 1214 2839 
Q 1316 2738 1450 2680 
Q 1584 2622 1738 2622 
Q 1891 2622 2027 2681 
Q 2163 2741 2263 2842 
Q 2363 2944 2422 3080 
Q 2481 3216 2481 3372 
Q 2481 3534 2423 3671 
Q 2366 3809 2266 3909 
Q 2166 4009 2030 4067 
Q 1894 4125 1738 4125 
Q 1572 4125 1436 4065 
Q 1300 4006 1201 3904 
Q 1103 3803 1050 3665 
Q 997 3528 997 3372 
z
" transform="scale(0.015625)"/>
       </defs>
       <use xlink:href="#SegoeUI-32"/>
       <use xlink:href="#SegoeUI-30" transform="translate(53.90625 0)"/>
       <use xlink:href="#SegoeUI-31" transform="translate(107.8125 0)"/>
       <use xlink:href="#SegoeUI-38" transform="translate(161.71875 0)"/>
      </g>
     </g>
    </g>
    <g id="xtick_5">
     <g id="line2d_8">
      <g>
       <use xlink:href="#m6628965141" x="348.806648" y="352.445" style="stroke: #000000; stroke-width: 0.8"/>
      </g>
     </g>
     <g id="text_5">
      <!-- 2019 -->
      <g transform="translate(338.025398 366.848125) scale(0.1 -0.1)">
       <defs>
        <path id="SegoeUI-39" d="M 3138 2509 
Q 3138 1894 3016 1414 
Q 2894 934 2659 601 
Q 2425 269 2087 95 
Q 1750 -78 1319 -78 
Q 875 -78 538 78 
L 538 569 
Q 909 359 1331 359 
Q 1634 359 1873 484 
Q 2113 609 2278 848 
Q 2444 1088 2531 1438 
Q 2619 1788 2619 2241 
L 2606 2241 
Q 2319 1663 1606 1663 
Q 1319 1663 1078 1764 
Q 838 1866 663 2052 
Q 488 2238 391 2494 
Q 294 2750 294 3059 
Q 294 3391 401 3666 
Q 509 3941 701 4139 
Q 894 4338 1158 4447 
Q 1422 4556 1734 4556 
Q 2072 4556 2333 4420 
Q 2594 4284 2772 4023 
Q 2950 3763 3044 3381 
Q 3138 3000 3138 2509 
z
M 2584 2969 
Q 2584 3228 2517 3440 
Q 2450 3653 2331 3804 
Q 2213 3956 2048 4039 
Q 1884 4122 1691 4122 
Q 1506 4122 1347 4048 
Q 1188 3975 1070 3842 
Q 953 3709 886 3526 
Q 819 3344 819 3128 
Q 819 2891 883 2703 
Q 947 2516 1065 2386 
Q 1184 2256 1351 2187 
Q 1519 2119 1722 2119 
Q 1900 2119 2058 2186 
Q 2216 2253 2333 2367 
Q 2450 2481 2517 2636 
Q 2584 2791 2584 2969 
z
" transform="scale(0.015625)"/>
       </defs>
       <use xlink:href="#SegoeUI-32"/>
       <use xlink:href="#SegoeUI-30" transform="translate(53.90625 0)"/>
       <use xlink:href="#SegoeUI-31" transform="translate(107.8125 0)"/>
       <use xlink:href="#SegoeUI-39" transform="translate(161.71875 0)"/>
      </g>
     </g>
    </g>
    <g id="xtick_6">
     <g id="line2d_9">
      <g>
       <use xlink:href="#m6628965141" x="415.279375" y="352.445" style="stroke: #000000; stroke-width: 0.8"/>
      </g>
     </g>
     <g id="text_6">
      <!-- 2020 -->
      <g transform="translate(404.498125 366.848125) scale(0.1 -0.1)">
       <use xlink:href="#SegoeUI-32"/>
       <use xlink:href="#SegoeUI-30" transform="translate(53.90625 0)"/>
       <use xlink:href="#SegoeUI-32" transform="translate(107.8125 0)"/>
       <use xlink:href="#SegoeUI-30" transform="translate(161.71875 0)"/>
      </g>
     </g>
    </g>
    <g id="xtick_7">
     <g id="line2d_10">
      <g>
       <use xlink:href="#m6628965141" x="481.752102" y="352.445" style="stroke: #000000; stroke-width: 0.8"/>
      </g>
     </g>
     <g id="text_7">
      <!-- 2021 -->
      <g transform="translate(470.970852 366.848125) scale(0.1 -0.1)">
       <use xlink:href="#SegoeUI-32"/>
       <use xlink:href="#SegoeUI-30" transform="translate(53.90625 0)"/>
       <use xlink:href="#SegoeUI-32" transform="translate(107.8125 0)"/>
       <use xlink:href="#SegoeUI-31" transform="translate(161.71875 0)"/>
      </g>
     </g>
    </g>
    <g id="xtick_8">
     <g id="line2d_11">
      <g>
       <use xlink:href="#m6628965141" x="681.170284" y="352.445" style="stroke: #000000; stroke-width: 0.8"/>
      </g>
     </g>
     <g id="text_8">
      <!-- 2024 -->
      <g transform="translate(670.389034 366.848125) scale(0.1 -0.1)">
       <defs>
        <path id="SegoeUI-34" d="M 2656 4481 
L 2656 1522 
L 3231 1522 
L 3231 1053 
L 2656 1053 
L 2656 0 
L 2150 0 
L 2150 1053 
L 44 1053 
L 44 1497 
Q 338 1828 638 2204 
Q 938 2581 1211 2968 
Q 1484 3356 1717 3742 
Q 1950 4128 2109 4481 
L 2656 4481 
z
M 622 1522 
L 2150 1522 
L 2150 3716 
Q 1916 3306 1706 2984 
Q 1497 2663 1308 2400 
Q 1119 2138 947 1925 
Q 775 1713 622 1522 
z
" transform="scale(0.015625)"/>
       </defs>
       <use xlink:href="#SegoeUI-32"/>
       <use xlink:href="#SegoeUI-30" transform="translate(53.90625 0)"/>
       <use xlink:href="#SegoeUI-32" transform="translate(107.8125 0)"/>
       <use xlink:href="#SegoeUI-34" transform="translate(161.71875 0)"/>
      </g>
     </g>
    </g>
    <g id="text_9">
     <!-- Year -->
     <g transform="translate(404.21125 382.031875) scale(0.12 -0.12)">
      <defs>
       <path id="SegoeUI-59" d="M 3500 4481 
L 2022 1656 
L 2022 0 
L 1497 0 
L 1497 1644 
L 56 4481 
L 653 4481 
L 1656 2456 
Q 1675 2419 1766 2181 
L 1775 2181 
Q 1806 2288 1894 2456 
L 2944 4481 
L 3500 4481 
z
" transform="scale(0.015625)"/>
       <path id="SegoeUI-65" d="M 3091 1472 
L 831 1472 
Q 844 938 1119 647 
Q 1394 356 1875 356 
Q 2416 356 2869 713 
L 2869 231 
Q 2447 -75 1753 -75 
Q 1075 -75 687 361 
Q 300 797 300 1588 
Q 300 2334 723 2804 
Q 1147 3275 1775 3275 
Q 2403 3275 2747 2869 
Q 3091 2463 3091 1741 
L 3091 1472 
z
M 2566 1906 
Q 2563 2350 2352 2597 
Q 2141 2844 1766 2844 
Q 1403 2844 1150 2584 
Q 897 2325 838 1906 
L 2566 1906 
z
" transform="scale(0.015625)"/>
       <path id="SegoeUI-61" d="M 2809 0 
L 2297 0 
L 2297 500 
L 2284 500 
Q 1950 -75 1300 -75 
Q 822 -75 551 178 
Q 281 431 281 850 
Q 281 1747 1338 1894 
L 2297 2028 
Q 2297 2844 1638 2844 
Q 1059 2844 594 2450 
L 594 2975 
Q 1066 3275 1681 3275 
Q 2809 3275 2809 2081 
L 2809 0 
z
M 2297 1619 
L 1525 1513 
Q 1169 1463 987 1336 
Q 806 1209 806 888 
Q 806 653 973 504 
Q 1141 356 1419 356 
Q 1800 356 2048 623 
Q 2297 891 2297 1300 
L 2297 1619 
z
" transform="scale(0.015625)"/>
       <path id="SegoeUI-72" d="M 2188 2681 
Q 2053 2784 1800 2784 
Q 1472 2784 1251 2475 
Q 1031 2166 1031 1631 
L 1031 0 
L 519 0 
L 519 3200 
L 1031 3200 
L 1031 2541 
L 1044 2541 
Q 1153 2878 1378 3067 
Q 1603 3256 1881 3256 
Q 2081 3256 2188 3213 
L 2188 2681 
z
" transform="scale(0.015625)"/>
      </defs>
      <use xlink:href="#SegoeUI-59"/>
      <use xlink:href="#SegoeUI-65" transform="translate(46.523438 0)"/>
      <use xlink:href="#SegoeUI-61" transform="translate(98.818359 0)"/>
      <use xlink:href="#SegoeUI-72" transform="translate(149.697266 0)"/>
     </g>
    </g>
   </g>
   <g id="matplotlib.axis_2">
    <g id="ytick_1">
     <g id="line2d_12">
      <path d="M 49.679375 352.445 
L 780.879375 352.445 
" clip-path="url(#p5a6477a65f)" style="fill: none; stroke: #e6e6e6; stroke-width: 0.6; stroke-linecap: square"/>
     </g>
     <g id="line2d_13">
      <defs>
       <path id="mc82abfa2a5" d="M 0 0 
L -3.5 0 
" style="stroke: #000000; stroke-width: 0.8"/>
      </defs>
      <g>
       <use xlink:href="#mc82abfa2a5" x="49.679375" y="352.445" style="stroke: #000000; stroke-width: 0.8"/>
      </g>
     </g>
     <g id="text_10">
      <!-- 0 -->
      <g transform="translate(37.28875 356.146563) scale(0.1 -0.1)">
       <use xlink:href="#SegoeUI-30"/>
      </g>
     </g>
    </g>
    <g id="ytick_2">
     <g id="line2d_14">
      <path d="M 49.679375 316.911667 
L 780.879375 316.911667 
" clip-path="url(#p5a6477a65f)" style="fill: none; stroke: #e6e6e6; stroke-width: 0.6; stroke-linecap: square"/>
     </g>
     <g id="line2d_15">
      <g>
       <use xlink:href="#mc82abfa2a5" x="49.679375" y="316.911667" style="stroke: #000000; stroke-width: 0.8"/>
      </g>
     </g>
     <g id="text_11">
      <!-- 25 -->
      <g transform="translate(31.898125 320.613229) scale(0.1 -0.1)">
       <use xlink:href="#SegoeUI-32"/>
       <use xlink:href="#SegoeUI-35" transform="translate(53.90625 0)"/>
      </g>
     </g>
    </g>
    <g id="ytick_3">
     <g id="line2d_16">
      <path d="M 49.679375 281.378333 
L 780.879375 281.378333 
" clip-path="url(#p5a6477a65f)" style="fill: none; stroke: #e6e6e6; stroke-width: 0.6; stroke-linecap: square"/>
     </g>
     <g id="line2d_17">
      <g>
       <use xlink:href="#mc82abfa2a5" x="49.679375" y="281.378333" style="stroke: #000000; stroke-width: 0.8"/>
      </g>
     </g>
     <g id="text_12">
      <!-- 50 -->
      <g transform="translate(31.898125 285.079896) scale(0.1 -0.1)">
       <use xlink:href="#SegoeUI-35"/>
       <use xlink:href="#SegoeUI-30" transform="translate(53.90625 0)"/>
      </g>
     </g>
    </g>
    <g id="ytick_4">
     <g id="line2d_18">
      <path d="M 49.679375 245.845 
L 780.879375 245.845 
" clip-path="url(#p5a6477a65f)" style="fill: none; stroke: #e6e6e6; stroke-width: 0.6; stroke-linecap: square"/>
     </g>
     <g id="line2d_19">
      <g>
       <use xlink:href="#mc82abfa2a5" x="49.679375" y="245.845" style="stroke: #000000; stroke-width: 0.8"/>
      </g>
     </g>
     <g id="text_13">
      <!-- 75 -->
      <g transform="translate(31.898125 249.546563) scale(0.1 -0.1)">
       <use xlink:href="#SegoeUI-37"/>
       <use xlink:href="#SegoeUI-35" transform="translate(53.90625 0)"/>
      </g>
     </g>
    </g>
    <g id="ytick_5">
     <g id="line2d_20">
      <path d="M 49.679375 210.311667 
L 780.879375 210.311667 
" clip-path="url(#p5a6477a65f)" style="fill: none; stroke: #e6e6e6; stroke-width: 0.6; stroke-linecap: square"/>
     </g>
     <g id="line2d_21">
      <g>
       <use xlink:href="#mc82abfa2a5" x="49.679375" y="210.311667" style="stroke: #000000; stroke-width: 0.8"/>
      </g>
     </g>
     <g id="text_14">
      <!-- 100 -->
      <g transform="translate(26.5075 214.013229) scale(0.1 -0.1)">
       <use xlink:href="#SegoeUI-31"/>
       <use xlink:href="#SegoeUI-30" transform="translate(53.90625 0)"/>
       <use xlink:href="#SegoeUI-30" transform="translate(107.8125 0)"/>
      </g>
     </g>
    </g>
    <g id="ytick_6">
     <g id="line2d_22">
      <path d="M 49.679375 174.778333 
L 780.879375 174.778333 
" clip-path="url(#p5a6477a65f)" style="fill: none; stroke: #e6e6e6; stroke-width: 0.6; stroke-linecap: square"/>
     </g>
     <g id="line2d_23">
      <g>
       <use xlink:href="#mc82abfa2a5" x="49.679375" y="174.778333" style="stroke: #000000; stroke-width: 0.8"/>
      </g>
     </g>
     <g id="text_15">
      <!-- 125 -->
      <g transform="translate(26.5075 178.479896) scale(0.1 -0.1)">
       <use xlink:href="#SegoeUI-31"/>
       <use xlink:href="#SegoeUI-32" transform="translate(53.90625 0)"/>
       <use xlink:href="#SegoeUI-35" transform="translate(107.8125 0)"/>
      </g>
     </g>
    </g>
    <g id="ytick_7">
     <g id="line2d_24">
      <path d="M 49.679375 139.245 
L 780.879375 139.245 
" clip-path="url(#p5a6477a65f)" style="fill: none; stroke: #e6e6e6; stroke-width: 0.6; stroke-linecap: square"/>
     </g>
     <g id="line2d_25">
      <g>
       <use xlink:href="#mc82abfa2a5" x="49.679375" y="139.245" style="stroke: #000000; stroke-width: 0.8"/>
      </g>
     </g>
     <g id="text_16">
      <!-- 150 -->
      <g transform="translate(26.5075 142.946562) scale(0.1 -0.1)">
       <use xlink:href="#SegoeUI-31"/>
       <use xlink:href="#SegoeUI-35" transform="translate(53.90625 0)"/>
       <use xlink:href="#SegoeUI-30" transform="translate(107.8125 0)"/>
      </g>
     </g>
    </g>
    <g id="ytick_8">
     <g id="line2d_26">
      <path d="M 49.679375 103.711667 
L 780.879375 103.711667 
" clip-path="url(#p5a6477a65f)" style="fill: none; stroke: #e6e6e6; stroke-width: 0.6; stroke-linecap: square"/>
     </g>
     <g id="line2d_27">
      <g>
       <use xlink:href="#mc82abfa2a5" x="49.679375" y="103.711667" style="stroke: #000000; stroke-width: 0.8"/>
      </g>
     </g>
     <g id="text_17">
      <!-- 175 -->
      <g transform="translate(26.5075 107.413229) scale(0.1 -0.1)">
       <use xlink:href="#SegoeUI-31"/>
       <use xlink:href="#SegoeUI-37" transform="translate(53.90625 0)"/>
       <use xlink:href="#SegoeUI-35" transform="translate(107.8125 0)"/>
      </g>
     </g>
    </g>
    <g id="ytick_9">
     <g id="line2d_28">
      <path d="M 49.679375 68.178333 
L 780.879375 68.178333 
" clip-path="url(#p5a6477a65f)" style="fill: none; stroke: #e6e6e6; stroke-width: 0.6; stroke-linecap: square"/>
     </g>
     <g id="line2d_29">
      <g>
       <use xlink:href="#mc82abfa2a5" x="49.679375" y="68.178333" style="stroke: #000000; stroke-width: 0.8"/>
      </g>
     </g>
     <g id="text_18">
      <!-- 200 -->
      <g transform="translate(26.5075 71.879896) scale(0.1 -0.1)">
       <use xlink:href="#SegoeUI-32"/>
       <use xlink:href="#SegoeUI-30" transform="translate(53.90625 0)"/>
       <use xlink:href="#SegoeUI-30" transform="translate(107.8125 0)"/>
      </g>
     </g>
    </g>
    <g id="ytick_10">
     <g id="line2d_30">
      <path d="M 49.679375 32.645 
L 780.879375 32.645 
" clip-path="url(#p5a6477a65f)" style="fill: none; stroke: #e6e6e6; stroke-width: 0.6; stroke-linecap: square"/>
     </g>
     <g id="line2d_31">
      <g>
       <use xlink:href="#mc82abfa2a5" x="49.679375" y="32.645" style="stroke: #000000; stroke-width: 0.8"/>
      </g>
     </g>
     <g id="text_19">
      <!-- 225 -->
      <g transform="translate(26.5075 36.346563) scale(0.1 -0.1)">
       <use xlink:href="#SegoeUI-32"/>
       <use xlink:href="#SegoeUI-32" transform="translate(53.90625 0)"/>
       <use xlink:href="#SegoeUI-35" transform="translate(107.8125 0)"/>
      </g>
     </g>
    </g>
    <g id="text_20">
     <!-- CPUC-Reportable Ignitions in HFTD Areas -->
     <g transform="translate(19.68375 302.458438) rotate(-90) scale(0.12 -0.12)">
      <defs>
       <path id="SegoeUI-43" d="M 3638 188 
Q 3141 -75 2400 -75 
Q 1444 -75 869 540 
Q 294 1156 294 2156 
Q 294 3231 941 3893 
Q 1588 4556 2581 4556 
Q 3219 4556 3638 4372 
L 3638 3813 
Q 3156 4081 2575 4081 
Q 1803 4081 1323 3565 
Q 844 3050 844 2188 
Q 844 1369 1292 883 
Q 1741 397 2469 397 
Q 3144 397 3638 697 
L 3638 188 
z
" transform="scale(0.015625)"/>
       <path id="SegoeUI-50" d="M 1113 1694 
L 1113 0 
L 588 0 
L 588 4481 
L 1819 4481 
Q 2538 4481 2933 4131 
Q 3328 3781 3328 3144 
Q 3328 2506 2889 2100 
Q 2450 1694 1703 1694 
L 1113 1694 
z
M 1113 4006 
L 1113 2169 
L 1663 2169 
Q 2206 2169 2492 2417 
Q 2778 2666 2778 3119 
Q 2778 4006 1728 4006 
L 1113 4006 
z
" transform="scale(0.015625)"/>
       <path id="SegoeUI-55" d="M 3866 1813 
Q 3866 -75 2163 -75 
Q 531 -75 531 1741 
L 531 4481 
L 1056 4481 
L 1056 1775 
Q 1056 397 2219 397 
Q 3341 397 3341 1728 
L 3341 4481 
L 3866 4481 
L 3866 1813 
z
" transform="scale(0.015625)"/>
       <path id="SegoeUI-2d" d="M 2156 1581 
L 450 1581 
L 450 1984 
L 2156 1984 
L 2156 1581 
z
" transform="scale(0.015625)"/>
       <path id="SegoeUI-52" d="M 3800 0 
L 3175 0 
L 2425 1256 
Q 2322 1431 2225 1554 
Q 2128 1678 2026 1756 
Q 1925 1834 1808 1870 
Q 1691 1906 1544 1906 
L 1113 1906 
L 1113 0 
L 588 0 
L 588 4481 
L 1925 4481 
Q 2219 4481 2467 4407 
Q 2716 4334 2898 4184 
Q 3081 4034 3184 3811 
Q 3288 3588 3288 3288 
Q 3288 3053 3217 2858 
Q 3147 2663 3017 2509 
Q 2888 2356 2705 2248 
Q 2522 2141 2294 2081 
L 2294 2069 
Q 2406 2019 2489 1955 
Q 2572 1891 2647 1803 
Q 2722 1716 2795 1605 
Q 2869 1494 2959 1347 
L 3800 0 
z
M 1113 4006 
L 1113 2381 
L 1825 2381 
Q 2022 2381 2189 2440 
Q 2356 2500 2478 2611 
Q 2600 2722 2669 2883 
Q 2738 3044 2738 3244 
Q 2738 3603 2505 3804 
Q 2272 4006 1831 4006 
L 1113 4006 
z
" transform="scale(0.015625)"/>
       <path id="SegoeUI-70" d="M 1044 463 
L 1031 463 
L 1031 -1472 
L 519 -1472 
L 519 3200 
L 1031 3200 
L 1031 2638 
L 1044 2638 
Q 1422 3275 2150 3275 
Q 2769 3275 3116 2845 
Q 3463 2416 3463 1694 
Q 3463 891 3072 408 
Q 2681 -75 2003 -75 
Q 1381 -75 1044 463 
z
M 1031 1753 
L 1031 1306 
Q 1031 909 1289 632 
Q 1547 356 1944 356 
Q 2409 356 2673 712 
Q 2938 1069 2938 1703 
Q 2938 2238 2691 2541 
Q 2444 2844 2022 2844 
Q 1575 2844 1303 2533 
Q 1031 2222 1031 1753 
z
" transform="scale(0.015625)"/>
       <path id="SegoeUI-6f" d="M 1856 -75 
Q 1147 -75 723 373 
Q 300 822 300 1563 
Q 300 2369 740 2822 
Q 1181 3275 1931 3275 
Q 2647 3275 3048 2834 
Q 3450 2394 3450 1613 
Q 3450 847 3017 386 
Q 2584 -75 1856 -75 
z
M 1894 2844 
Q 1400 2844 1112 2508 
Q 825 2172 825 1581 
Q 825 1013 1115 684 
Q 1406 356 1894 356 
Q 2391 356 2658 678 
Q 2925 1000 2925 1594 
Q 2925 2194 2658 2519 
Q 2391 2844 1894 2844 
z
" transform="scale(0.015625)"/>
       <path id="SegoeUI-74" d="M 2003 31 
Q 1822 -69 1525 -69 
Q 684 -69 684 869 
L 684 2763 
L 134 2763 
L 134 3200 
L 684 3200 
L 684 3981 
L 1197 4147 
L 1197 3200 
L 2003 3200 
L 2003 2763 
L 1197 2763 
L 1197 959 
Q 1197 638 1306 500 
Q 1416 363 1669 363 
Q 1863 363 2003 469 
L 2003 31 
z
" transform="scale(0.015625)"/>
       <path id="SegoeUI-62" d="M 1044 463 
L 1031 463 
L 1031 0 
L 519 0 
L 519 4738 
L 1031 4738 
L 1031 2638 
L 1044 2638 
Q 1422 3275 2150 3275 
Q 2766 3275 3114 2845 
Q 3463 2416 3463 1694 
Q 3463 891 3072 408 
Q 2681 -75 2003 -75 
Q 1369 -75 1044 463 
z
M 1031 1753 
L 1031 1306 
Q 1031 909 1289 632 
Q 1547 356 1944 356 
Q 2409 356 2673 712 
Q 2938 1069 2938 1703 
Q 2938 2238 2691 2541 
Q 2444 2844 2022 2844 
Q 1575 2844 1303 2533 
Q 1031 2222 1031 1753 
z
" transform="scale(0.015625)"/>
       <path id="SegoeUI-6c" d="M 1031 0 
L 519 0 
L 519 4738 
L 1031 4738 
L 1031 0 
z
" transform="scale(0.015625)"/>
       <path id="SegoeUI-20" transform="scale(0.015625)"/>
       <path id="SegoeUI-49" d="M 1113 0 
L 588 0 
L 588 4481 
L 1113 4481 
L 1113 0 
z
" transform="scale(0.015625)"/>
       <path id="SegoeUI-67" d="M 3250 256 
Q 3250 -1506 1563 -1506 
Q 969 -1506 525 -1281 
L 525 -769 
Q 1066 -1069 1556 -1069 
Q 2738 -1069 2738 188 
L 2738 538 
L 2725 538 
Q 2359 -75 1625 -75 
Q 1028 -75 664 351 
Q 300 778 300 1497 
Q 300 2313 692 2794 
Q 1084 3275 1766 3275 
Q 2413 3275 2725 2756 
L 2738 2756 
L 2738 3200 
L 3250 3200 
L 3250 256 
z
M 2738 1447 
L 2738 1919 
Q 2738 2300 2480 2572 
Q 2222 2844 1838 2844 
Q 1363 2844 1094 2498 
Q 825 2153 825 1531 
Q 825 997 1083 676 
Q 1341 356 1766 356 
Q 2197 356 2467 662 
Q 2738 969 2738 1447 
z
" transform="scale(0.015625)"/>
       <path id="SegoeUI-6e" d="M 3175 0 
L 2663 0 
L 2663 1825 
Q 2663 2844 1919 2844 
Q 1534 2844 1282 2555 
Q 1031 2266 1031 1825 
L 1031 0 
L 519 0 
L 519 3200 
L 1031 3200 
L 1031 2669 
L 1044 2669 
Q 1406 3275 2094 3275 
Q 2619 3275 2897 2936 
Q 3175 2597 3175 1956 
L 3175 0 
z
" transform="scale(0.015625)"/>
       <path id="SegoeUI-69" d="M 781 4013 
Q 644 4013 547 4106 
Q 450 4200 450 4344 
Q 450 4488 547 4583 
Q 644 4678 781 4678 
Q 922 4678 1020 4583 
Q 1119 4488 1119 4344 
Q 1119 4206 1020 4109 
Q 922 4013 781 4013 
z
M 1031 0 
L 519 0 
L 519 3200 
L 1031 3200 
L 1031 0 
z
" transform="scale(0.015625)"/>
       <path id="SegoeUI-73" d="M 325 116 
L 325 666 
Q 744 356 1247 356 
Q 1922 356 1922 806 
Q 1922 934 1864 1023 
Q 1806 1113 1707 1181 
Q 1609 1250 1476 1304 
Q 1344 1359 1191 1419 
Q 978 1503 817 1589 
Q 656 1675 548 1783 
Q 441 1891 386 2028 
Q 331 2166 331 2350 
Q 331 2575 434 2748 
Q 538 2922 709 3039 
Q 881 3156 1101 3215 
Q 1322 3275 1556 3275 
Q 1972 3275 2300 3131 
L 2300 2613 
Q 1947 2844 1488 2844 
Q 1344 2844 1228 2811 
Q 1113 2778 1030 2718 
Q 947 2659 901 2576 
Q 856 2494 856 2394 
Q 856 2269 901 2184 
Q 947 2100 1034 2034 
Q 1122 1969 1247 1916 
Q 1372 1863 1531 1800 
Q 1744 1719 1912 1633 
Q 2081 1547 2200 1439 
Q 2319 1331 2383 1190 
Q 2447 1050 2447 856 
Q 2447 619 2342 444 
Q 2238 269 2063 153 
Q 1888 38 1659 -18 
Q 1431 -75 1181 -75 
Q 688 -75 325 116 
z
" transform="scale(0.015625)"/>
       <path id="SegoeUI-48" d="M 3956 0 
L 3431 0 
L 3431 2044 
L 1113 2044 
L 1113 0 
L 588 0 
L 588 4481 
L 1113 4481 
L 1113 2516 
L 3431 2516 
L 3431 4481 
L 3956 4481 
L 3956 0 
z
" transform="scale(0.015625)"/>
       <path id="SegoeUI-46" d="M 2863 4006 
L 1113 4006 
L 1113 2456 
L 2731 2456 
L 2731 1984 
L 1113 1984 
L 1113 0 
L 588 0 
L 588 4481 
L 2863 4481 
L 2863 4006 
z
" transform="scale(0.015625)"/>
       <path id="SegoeUI-54" d="M 3238 4006 
L 1944 4006 
L 1944 0 
L 1419 0 
L 1419 4006 
L 128 4006 
L 128 4481 
L 3238 4481 
L 3238 4006 
z
" transform="scale(0.015625)"/>
       <path id="SegoeUI-44" d="M 588 0 
L 588 4481 
L 1825 4481 
Q 4194 4481 4194 2297 
Q 4194 1259 3536 629 
Q 2878 0 1775 0 
L 588 0 
z
M 1113 4006 
L 1113 475 
L 1781 475 
Q 2663 475 3153 947 
Q 3644 1419 3644 2284 
Q 3644 4006 1813 4006 
L 1113 4006 
z
" transform="scale(0.015625)"/>
       <path id="SegoeUI-41" d="M 4056 0 
L 3475 0 
L 3000 1256 
L 1100 1256 
L 653 0 
L 69 0 
L 1788 4481 
L 2331 4481 
L 4056 0 
z
M 2828 1728 
L 2125 3638 
Q 2091 3731 2056 3938 
L 2044 3938 
Q 2013 3747 1972 3638 
L 1275 1728 
L 2828 1728 
z
" transform="scale(0.015625)"/>
      </defs>
      <use xlink:href="#SegoeUI-43"/>
      <use xlink:href="#SegoeUI-50" transform="translate(61.914062 0)"/>
      <use xlink:href="#SegoeUI-55" transform="translate(117.919922 0)"/>
      <use xlink:href="#SegoeUI-43" transform="translate(186.621094 0)"/>
      <use xlink:href="#SegoeUI-2d" transform="translate(248.535156 0)"/>
      <use xlink:href="#SegoeUI-52" transform="translate(288.525391 0)"/>
      <use xlink:href="#SegoeUI-65" transform="translate(345.589844 0)"/>
      <use xlink:href="#SegoeUI-70" transform="translate(397.884766 0)"/>
      <use xlink:href="#SegoeUI-6f" transform="translate(456.673828 0)"/>
      <use xlink:href="#SegoeUI-72" transform="translate(515.267578 0)"/>
      <use xlink:href="#SegoeUI-74" transform="translate(552.908203 0)"/>
      <use xlink:href="#SegoeUI-61" transform="translate(586.794922 0)"/>
      <use xlink:href="#SegoeUI-62" transform="translate(637.673828 0)"/>
      <use xlink:href="#SegoeUI-6c" transform="translate(696.462891 0)"/>
      <use xlink:href="#SegoeUI-65" transform="translate(720.681641 0)"/>
      <use xlink:href="#SegoeUI-20" transform="translate(772.976562 0)"/>
      <use xlink:href="#SegoeUI-49" transform="translate(800.369141 0)"/>
      <use xlink:href="#SegoeUI-67" transform="translate(826.980469 0)"/>
      <use xlink:href="#SegoeUI-6e" transform="translate(885.867188 0)"/>
      <use xlink:href="#SegoeUI-69" transform="translate(942.458984 0)"/>
      <use xlink:href="#SegoeUI-74" transform="translate(966.677734 0)"/>
      <use xlink:href="#SegoeUI-69" transform="translate(1000.564453 0)"/>
      <use xlink:href="#SegoeUI-6f" transform="translate(1024.783203 0)"/>
      <use xlink:href="#SegoeUI-6e" transform="translate(1083.376953 0)"/>
      <use xlink:href="#SegoeUI-73" transform="translate(1139.96875 0)"/>
      <use xlink:href="#SegoeUI-20" transform="translate(1182.400391 0)"/>
      <use xlink:href="#SegoeUI-69" transform="translate(1209.792969 0)"/>
      <use xlink:href="#SegoeUI-6e" transform="translate(1234.011719 0)"/>
      <use xlink:href="#SegoeUI-20" transform="translate(1290.603516 0)"/>
      <use xlink:href="#SegoeUI-48" transform="translate(1317.996094 0)"/>
      <use xlink:href="#SegoeUI-46" transform="translate(1388.992188 0)"/>
      <use xlink:href="#SegoeUI-54" transform="translate(1438.445312 0)"/>
      <use xlink:href="#SegoeUI-44" transform="translate(1490.837891 0)"/>
      <use xlink:href="#SegoeUI-20" transform="translate(1560.955078 0)"/>
      <use xlink:href="#SegoeUI-41" transform="translate(1588.347656 0)"/>
      <use xlink:href="#SegoeUI-72" transform="translate(1652.849609 0)"/>
      <use xlink:href="#SegoeUI-65" transform="translate(1686.240234 0)"/>
      <use xlink:href="#SegoeUI-61" transform="translate(1738.535156 0)"/>
      <use xlink:href="#SegoeUI-73" transform="translate(1789.414062 0)"/>
     </g>
    </g>
   </g>
   <g id="patch_3">
    <path d="M 49.679375 352.445 
L 49.679375 32.645 
" style="fill: none; stroke: #1a1a1a; stroke-width: 0.7; stroke-linejoin: miter; stroke-linecap: square"/>
   </g>
   <g id="patch_4">
    <path d="M 49.679375 352.445 
L 780.879375 352.445 
" style="fill: none; stroke: #1a1a1a; stroke-width: 0.7; stroke-linejoin: miter; stroke-linecap: square"/>
   </g>
   <g id="text_21">
    <!-- 154 -->
    <g style="fill: #d55e00" transform="translate(754.290284 136.56674) scale(0.09 -0.09)">
     <use xlink:href="#SegoeUI-31"/>
     <use xlink:href="#SegoeUI-35" transform="translate(53.90625 0)"/>
     <use xlink:href="#SegoeUI-34" transform="translate(107.8125 0)"/>
    </g>
   </g>
   <g id="text_22">
    <!-- PSPS scaling -->
    <g style="fill: #0072b2" transform="translate(323.31696 53.521146) scale(0.09 -0.09)">
     <defs>
      <path id="SegoeUI-Semibold-50" d="M 1294 1625 
L 1294 0 
L 553 0 
L 553 4481 
L 1913 4481 
Q 2684 4481 3109 4122 
Q 3534 3763 3534 3109 
Q 3534 2456 3090 2040 
Q 2647 1625 1891 1625 
L 1294 1625 
z
M 1294 3869 
L 1294 2231 
L 1775 2231 
Q 2253 2231 2503 2453 
Q 2753 2675 2753 3078 
Q 2753 3869 1834 3869 
L 1294 3869 
z
" transform="scale(0.015625)"/>
      <path id="SegoeUI-Semibold-53" d="M 347 178 
L 347 944 
Q 450 850 592 775 
Q 734 700 893 648 
Q 1053 597 1212 569 
Q 1372 541 1506 541 
Q 1975 541 2204 697 
Q 2434 853 2434 1150 
Q 2434 1309 2357 1426 
Q 2281 1544 2143 1641 
Q 2006 1738 1820 1827 
Q 1634 1916 1422 2013 
Q 1194 2134 997 2259 
Q 800 2384 654 2536 
Q 509 2688 426 2878 
Q 344 3069 344 3325 
Q 344 3641 486 3873 
Q 628 4106 861 4257 
Q 1094 4409 1391 4482 
Q 1688 4556 1997 4556 
Q 2700 4556 3022 4397 
L 3022 3663 
Q 2641 3938 2041 3938 
Q 1875 3938 1711 3906 
Q 1547 3875 1417 3803 
Q 1288 3731 1206 3618 
Q 1125 3506 1125 3347 
Q 1125 3197 1187 3087 
Q 1250 2978 1370 2887 
Q 1491 2797 1664 2711 
Q 1838 2625 2066 2525 
Q 2300 2403 2508 2268 
Q 2716 2134 2873 1971 
Q 3031 1809 3123 1611 
Q 3216 1413 3216 1159 
Q 3216 819 3078 584 
Q 2941 350 2708 203 
Q 2475 56 2172 -9 
Q 1869 -75 1531 -75 
Q 1419 -75 1255 -58 
Q 1091 -41 919 -8 
Q 747 25 594 72 
Q 441 119 347 178 
z
" transform="scale(0.015625)"/>
      <path id="SegoeUI-Semibold-20" transform="scale(0.015625)"/>
      <path id="SegoeUI-Semibold-73" d="M 272 100 
L 272 772 
Q 678 463 1169 463 
Q 1825 463 1825 850 
Q 1825 959 1769 1036 
Q 1713 1113 1617 1172 
Q 1522 1231 1392 1278 
Q 1263 1325 1103 1384 
Q 906 1463 748 1550 
Q 591 1638 486 1748 
Q 381 1859 328 2000 
Q 275 2141 275 2328 
Q 275 2559 384 2736 
Q 494 2913 678 3033 
Q 863 3153 1097 3214 
Q 1331 3275 1581 3275 
Q 2025 3275 2375 3141 
L 2375 2506 
Q 2038 2738 1600 2738 
Q 1463 2738 1352 2709 
Q 1241 2681 1162 2631 
Q 1084 2581 1040 2511 
Q 997 2441 997 2356 
Q 997 2253 1040 2181 
Q 1084 2109 1170 2054 
Q 1256 2000 1376 1954 
Q 1497 1909 1653 1856 
Q 1859 1772 2023 1684 
Q 2188 1597 2303 1486 
Q 2419 1375 2481 1229 
Q 2544 1084 2544 884 
Q 2544 641 2431 459 
Q 2319 278 2131 159 
Q 1944 41 1698 -17 
Q 1453 -75 1181 -75 
Q 656 -75 272 100 
z
" transform="scale(0.015625)"/>
      <path id="SegoeUI-Semibold-63" d="M 2763 147 
Q 2378 -75 1853 -75 
Q 1141 -75 703 370 
Q 266 816 266 1525 
Q 266 2316 736 2795 
Q 1206 3275 1994 3275 
Q 2431 3275 2766 3122 
L 2766 2447 
Q 2431 2697 2053 2697 
Q 1594 2697 1300 2386 
Q 1006 2075 1006 1572 
Q 1006 1075 1282 787 
Q 1559 500 2025 500 
Q 2416 500 2763 778 
L 2763 147 
z
" transform="scale(0.015625)"/>
      <path id="SegoeUI-Semibold-61" d="M 2928 0 
L 2225 0 
L 2225 500 
L 2213 500 
Q 1881 -75 1241 -75 
Q 769 -75 501 181 
Q 234 438 234 859 
Q 234 1766 1278 1916 
L 2228 2050 
Q 2228 2734 1578 2734 
Q 1006 2734 547 2341 
L 547 2975 
Q 1053 3275 1716 3275 
Q 2928 3275 2928 2081 
L 2928 0 
z
M 2228 1572 
L 1556 1478 
Q 1244 1438 1086 1327 
Q 928 1216 928 938 
Q 928 734 1073 604 
Q 1219 475 1463 475 
Q 1794 475 2011 708 
Q 2228 941 2228 1294 
L 2228 1572 
z
" transform="scale(0.015625)"/>
      <path id="SegoeUI-Semibold-6c" d="M 1200 0 
L 472 0 
L 472 4738 
L 1200 4738 
L 1200 0 
z
" transform="scale(0.015625)"/>
      <path id="SegoeUI-Semibold-69" d="M 838 3872 
Q 659 3872 532 3987 
Q 406 4103 406 4281 
Q 406 4459 532 4578 
Q 659 4697 838 4697 
Q 1022 4697 1150 4578 
Q 1278 4459 1278 4281 
Q 1278 4113 1150 3992 
Q 1022 3872 838 3872 
z
M 1197 0 
L 472 0 
L 472 3200 
L 1197 3200 
L 1197 0 
z
" transform="scale(0.015625)"/>
      <path id="SegoeUI-Semibold-6e" d="M 3322 0 
L 2597 0 
L 2597 1803 
Q 2597 2700 1963 2700 
Q 1631 2700 1415 2451 
Q 1200 2203 1200 1825 
L 1200 0 
L 472 0 
L 472 3200 
L 1200 3200 
L 1200 2669 
L 1213 2669 
Q 1572 3275 2250 3275 
Q 2772 3275 3047 2936 
Q 3322 2597 3322 1956 
L 3322 0 
z
" transform="scale(0.015625)"/>
      <path id="SegoeUI-Semibold-67" d="M 3384 256 
Q 3384 -1506 1613 -1506 
Q 988 -1506 522 -1297 
L 522 -634 
Q 1047 -934 1519 -934 
Q 2659 -934 2659 188 
L 2659 538 
L 2647 538 
Q 2288 -75 1566 -75 
Q 981 -75 623 351 
Q 266 778 266 1497 
Q 266 2313 650 2794 
Q 1034 3275 1706 3275 
Q 2341 3275 2647 2756 
L 2659 2756 
L 2659 3200 
L 3384 3200 
L 3384 256 
z
M 2666 1466 
L 2666 1881 
Q 2666 2219 2442 2458 
Q 2219 2697 1884 2697 
Q 1472 2697 1239 2392 
Q 1006 2088 1006 1541 
Q 1006 1069 1229 786 
Q 1453 503 1822 503 
Q 2197 503 2431 773 
Q 2666 1044 2666 1466 
z
" transform="scale(0.015625)"/>
     </defs>
     <use xlink:href="#SegoeUI-Semibold-50"/>
     <use xlink:href="#SegoeUI-Semibold-53" transform="translate(58.447266 0)"/>
     <use xlink:href="#SegoeUI-Semibold-50" transform="translate(112.890625 0)"/>
     <use xlink:href="#SegoeUI-Semibold-53" transform="translate(171.337891 0)"/>
     <use xlink:href="#SegoeUI-Semibold-20" transform="translate(225.78125 0)"/>
     <use xlink:href="#SegoeUI-Semibold-73" transform="translate(253.271484 0)"/>
     <use xlink:href="#SegoeUI-Semibold-63" transform="translate(296.386719 0)"/>
     <use xlink:href="#SegoeUI-Semibold-61" transform="translate(343.408203 0)"/>
     <use xlink:href="#SegoeUI-Semibold-6c" transform="translate(395.605469 0)"/>
     <use xlink:href="#SegoeUI-Semibold-69" transform="translate(421.728516 0)"/>
     <use xlink:href="#SegoeUI-Semibold-6e" transform="translate(447.851562 0)"/>
     <use xlink:href="#SegoeUI-Semibold-67" transform="translate(506.201172 0)"/>
    </g>
   </g>
   <g id="text_23">
    <!-- EPSS enabled -->
    <g style="fill: #009e73" transform="translate(454.302102 53.521146) scale(0.09 -0.09)">
     <defs>
      <path id="SegoeUI-Semibold-45" d="M 3069 0 
L 553 0 
L 553 4481 
L 2969 4481 
L 2969 3850 
L 1297 3850 
L 1297 2581 
L 2838 2581 
L 2838 1953 
L 1297 1953 
L 1297 628 
L 3069 628 
L 3069 0 
z
" transform="scale(0.015625)"/>
      <path id="SegoeUI-Semibold-65" d="M 3181 1403 
L 1000 1403 
Q 1013 959 1273 718 
Q 1534 478 1991 478 
Q 2503 478 2931 784 
L 2931 200 
Q 2494 -75 1775 -75 
Q 1069 -75 667 361 
Q 266 797 266 1588 
Q 266 2334 708 2804 
Q 1150 3275 1806 3275 
Q 2463 3275 2822 2853 
Q 3181 2431 3181 1681 
L 3181 1403 
z
M 2481 1916 
Q 2478 2306 2297 2523 
Q 2116 2741 1797 2741 
Q 1484 2741 1267 2512 
Q 1050 2284 1000 1916 
L 2481 1916 
z
" transform="scale(0.015625)"/>
      <path id="SegoeUI-Semibold-62" d="M 1209 463 
L 1197 463 
L 1197 0 
L 472 0 
L 472 4738 
L 1197 4738 
L 1197 2638 
L 1209 2638 
Q 1581 3275 2297 3275 
Q 2903 3275 3245 2845 
Q 3588 2416 3588 1694 
Q 3588 891 3203 408 
Q 2819 -75 2153 -75 
Q 1528 -75 1209 463 
z
M 1191 1734 
L 1191 1338 
Q 1191 988 1414 744 
Q 1638 500 1981 500 
Q 2384 500 2614 814 
Q 2844 1128 2844 1691 
Q 2844 2163 2630 2430 
Q 2416 2697 2050 2697 
Q 1663 2697 1427 2422 
Q 1191 2147 1191 1734 
z
" transform="scale(0.015625)"/>
      <path id="SegoeUI-Semibold-64" d="M 3381 0 
L 2656 0 
L 2656 544 
L 2644 544 
Q 2294 -75 1566 -75 
Q 975 -75 620 354 
Q 266 784 266 1525 
Q 266 2319 658 2797 
Q 1050 3275 1703 3275 
Q 2350 3275 2644 2756 
L 2656 2756 
L 2656 4738 
L 3381 4738 
L 3381 0 
z
M 2666 1463 
L 2666 1881 
Q 2666 2222 2444 2459 
Q 2222 2697 1878 2697 
Q 1472 2697 1239 2394 
Q 1006 2091 1006 1553 
Q 1006 1066 1229 783 
Q 1453 500 1831 500 
Q 2203 500 2434 773 
Q 2666 1047 2666 1463 
z
" transform="scale(0.015625)"/>
     </defs>
     <use xlink:href="#SegoeUI-Semibold-45"/>
     <use xlink:href="#SegoeUI-Semibold-50" transform="translate(51.757812 0)"/>
     <use xlink:href="#SegoeUI-Semibold-53" transform="translate(110.205078 0)"/>
     <use xlink:href="#SegoeUI-Semibold-53" transform="translate(164.648438 0)"/>
     <use xlink:href="#SegoeUI-Semibold-20" transform="translate(219.091797 0)"/>
     <use xlink:href="#SegoeUI-Semibold-65" transform="translate(246.582031 0)"/>
     <use xlink:href="#SegoeUI-Semibold-6e" transform="translate(299.707031 0)"/>
     <use xlink:href="#SegoeUI-Semibold-61" transform="translate(358.056641 0)"/>
     <use xlink:href="#SegoeUI-Semibold-62" transform="translate(410.253906 0)"/>
     <use xlink:href="#SegoeUI-Semibold-6c" transform="translate(470.507812 0)"/>
     <use xlink:href="#SegoeUI-Semibold-65" transform="translate(496.630859 0)"/>
     <use xlink:href="#SegoeUI-Semibold-64" transform="translate(549.755859 0)"/>
    </g>
   </g>
   <g id="line2d_32">
    <path d="M 481.752102 161.986333 
L 681.170284 272.850333 
" clip-path="url(#p5a6477a65f)" style="fill: none; stroke-dasharray: 5.55,2.4; stroke-dashoffset: 0; stroke: #9aa3ae; stroke-width: 1.5"/>
   </g>
   <g id="text_24">
    <!-- 56 -->
    <g style="fill: #009e73" transform="translate(674.268409 244.423667) scale(0.12 -0.12)">
     <defs>
      <path id="SegoeUI-Bold-35" d="M 444 116 
L 444 959 
Q 903 678 1422 678 
Q 1813 678 2033 864 
Q 2253 1050 2253 1369 
Q 2253 2034 1313 2034 
Q 966 2034 513 1981 
L 681 4481 
L 3053 4481 
L 3053 3675 
L 1434 3675 
L 1372 2778 
Q 1613 2797 1788 2797 
Q 2478 2797 2868 2434 
Q 3259 2072 3259 1459 
Q 3259 781 2793 351 
Q 2328 -78 1531 -78 
Q 884 -78 444 116 
z
" transform="scale(0.015625)"/>
      <path id="SegoeUI-Bold-36" d="M 3469 1491 
Q 3469 1159 3353 871 
Q 3238 584 3031 373 
Q 2825 163 2540 42 
Q 2256 -78 1919 -78 
Q 1541 -78 1242 62 
Q 944 203 737 470 
Q 531 738 422 1125 
Q 313 1513 313 2003 
Q 313 2581 455 3051 
Q 597 3522 861 3856 
Q 1125 4191 1500 4373 
Q 1875 4556 2344 4556 
Q 2863 4556 3150 4434 
L 3150 3609 
Q 2809 3803 2406 3803 
Q 2156 3803 1953 3706 
Q 1750 3609 1604 3431 
Q 1459 3253 1376 3001 
Q 1294 2750 1288 2441 
L 1306 2441 
Q 1625 2881 2247 2881 
Q 2525 2881 2750 2781 
Q 2975 2681 3134 2498 
Q 3294 2316 3381 2059 
Q 3469 1803 3469 1491 
z
M 2503 1428 
Q 2503 2150 1913 2150 
Q 1778 2150 1668 2100 
Q 1559 2050 1481 1959 
Q 1403 1869 1361 1745 
Q 1319 1622 1319 1472 
Q 1319 1306 1362 1162 
Q 1406 1019 1486 911 
Q 1566 803 1675 740 
Q 1784 678 1919 678 
Q 2053 678 2161 733 
Q 2269 788 2345 886 
Q 2422 984 2462 1123 
Q 2503 1263 2503 1428 
z
" transform="scale(0.015625)"/>
     </defs>
     <use xlink:href="#SegoeUI-Bold-35"/>
     <use xlink:href="#SegoeUI-Bold-36" transform="translate(57.519531 0)"/>
    </g>
   </g>
   <g id="text_25">
    <!-- 2022–23 -->
    <g style="fill: #9aa3ae" transform="translate(565.590099 211.318526) scale(0.085 -0.085)">
     <defs>
      <path id="SegoeUI-Italic-32" d="M 2828 3488 
Q 2828 3788 2648 3955 
Q 2469 4122 2150 4122 
Q 1847 4122 1540 3994 
Q 1234 3866 969 3622 
L 1097 4197 
Q 1366 4400 1639 4478 
Q 1913 4556 2275 4556 
Q 2775 4556 3072 4292 
Q 3369 4028 3369 3581 
Q 3369 3200 3239 2911 
Q 3109 2622 2825 2353 
Q 2541 2084 1994 1741 
Q 1497 1431 1239 1231 
Q 981 1031 856 862 
Q 731 694 678 459 
L 2891 459 
L 2794 0 
L 28 0 
L 75 222 
Q 156 600 317 872 
Q 478 1144 768 1400 
Q 1059 1656 1666 2044 
Q 2106 2322 2354 2544 
Q 2603 2766 2715 2978 
Q 2828 3191 2828 3488 
z
" transform="scale(0.015625)"/>
      <path id="SegoeUI-Italic-30" d="M 3431 3231 
Q 3431 2997 3409 2742 
Q 3388 2488 3341 2228 
Q 3294 1969 3220 1714 
Q 3147 1459 3044 1221 
Q 2941 984 2808 773 
Q 2675 563 2509 391 
Q 2059 -78 1428 -78 
Q 1175 -78 964 20 
Q 753 119 603 308 
Q 453 497 370 773 
Q 288 1050 288 1409 
Q 288 1756 344 2126 
Q 400 2497 515 2848 
Q 631 3200 803 3512 
Q 975 3825 1209 4063 
Q 1431 4297 1706 4426 
Q 1981 4556 2328 4556 
Q 2578 4556 2781 4472 
Q 2984 4388 3129 4220 
Q 3275 4053 3353 3806 
Q 3431 3559 3431 3231 
z
M 2913 3188 
Q 2913 3625 2750 3873 
Q 2588 4122 2278 4122 
Q 2094 4122 1931 4042 
Q 1769 3963 1613 3803 
Q 1491 3675 1383 3498 
Q 1275 3322 1186 3117 
Q 1097 2913 1028 2688 
Q 959 2463 911 2238 
Q 863 2013 838 1797 
Q 813 1581 813 1394 
Q 813 1122 864 926 
Q 916 731 1006 604 
Q 1097 478 1220 418 
Q 1344 359 1484 359 
Q 1653 359 1815 434 
Q 1978 509 2119 659 
Q 2284 838 2428 1120 
Q 2572 1403 2680 1743 
Q 2788 2084 2850 2457 
Q 2913 2831 2913 3188 
z
" transform="scale(0.015625)"/>
      <path id="SegoeUI-Italic-2013" d="M 13 1581 
L 94 1984 
L 3294 1984 
L 3213 1581 
L 13 1581 
z
" transform="scale(0.015625)"/>
      <path id="SegoeUI-Italic-33" d="M 3284 3553 
Q 3284 3328 3215 3126 
Q 3147 2925 3000 2762 
Q 2853 2600 2625 2483 
Q 2397 2366 2081 2309 
L 2081 2297 
Q 2269 2269 2425 2184 
Q 2581 2100 2692 1972 
Q 2803 1844 2864 1678 
Q 2925 1513 2925 1319 
Q 2925 1034 2822 781 
Q 2719 528 2508 337 
Q 2297 147 1980 34 
Q 1663 -78 1234 -78 
Q 1063 -78 897 -54 
Q 731 -31 586 5 
Q 441 41 319 86 
Q 197 131 109 178 
L 219 666 
Q 303 609 420 553 
Q 538 497 673 455 
Q 809 413 957 386 
Q 1106 359 1253 359 
Q 1581 359 1803 439 
Q 2025 519 2159 648 
Q 2294 778 2350 945 
Q 2406 1113 2406 1288 
Q 2406 1659 2131 1876 
Q 1856 2094 1300 2094 
L 959 2094 
L 1056 2534 
L 1428 2534 
Q 1753 2534 2001 2600 
Q 2250 2666 2419 2786 
Q 2588 2906 2673 3078 
Q 2759 3250 2759 3463 
Q 2759 3597 2715 3717 
Q 2672 3838 2580 3927 
Q 2488 4016 2348 4069 
Q 2209 4122 2016 4122 
Q 1856 4122 1711 4098 
Q 1566 4075 1437 4037 
Q 1309 4000 1200 3953 
Q 1091 3906 1006 3859 
L 1113 4372 
Q 1194 4403 1294 4436 
Q 1394 4469 1516 4495 
Q 1638 4522 1784 4539 
Q 1931 4556 2106 4556 
Q 2422 4556 2644 4468 
Q 2866 4381 3009 4239 
Q 3153 4097 3218 3917 
Q 3284 3738 3284 3553 
z
" transform="scale(0.015625)"/>
     </defs>
     <use xlink:href="#SegoeUI-Italic-32"/>
     <use xlink:href="#SegoeUI-Italic-30" transform="translate(53.90625 0)"/>
     <use xlink:href="#SegoeUI-Italic-32" transform="translate(107.8125 0)"/>
     <use xlink:href="#SegoeUI-Italic-32" transform="translate(161.71875 0)"/>
     <use xlink:href="#SegoeUI-Italic-2013" transform="translate(215.625 0)"/>
     <use xlink:href="#SegoeUI-Italic-32" transform="translate(265.625 0)"/>
     <use xlink:href="#SegoeUI-Italic-33" transform="translate(319.53125 0)"/>
    </g>
    <!-- not reported -->
    <g style="fill: #9aa3ae" transform="translate(558.748928 221.475096) scale(0.085 -0.085)">
     <defs>
      <path id="SegoeUI-Italic-6e" d="M 3269 2400 
Q 3269 2353 3258 2272 
Q 3247 2191 3230 2097 
Q 3213 2003 3195 1911 
Q 3178 1819 3163 1753 
L 2791 0 
L 2272 0 
L 2663 1875 
Q 2675 1925 2687 1990 
Q 2700 2056 2709 2122 
Q 2719 2188 2725 2242 
Q 2731 2297 2731 2328 
Q 2731 2566 2617 2703 
Q 2503 2841 2278 2841 
Q 2072 2841 1869 2719 
Q 1666 2597 1494 2409 
Q 1322 2222 1198 1997 
Q 1075 1772 1031 1563 
L 697 0 
L 178 0 
L 672 2284 
Q 697 2406 722 2539 
Q 747 2672 769 2795 
Q 791 2919 806 3025 
Q 822 3131 831 3200 
L 1331 3200 
Q 1316 3078 1294 2945 
Q 1272 2813 1256 2700 
Q 1238 2569 1216 2444 
L 1228 2444 
Q 1338 2616 1470 2767 
Q 1603 2919 1758 3033 
Q 1913 3147 2086 3212 
Q 2259 3278 2450 3278 
Q 2663 3278 2816 3214 
Q 2969 3150 3070 3034 
Q 3172 2919 3220 2756 
Q 3269 2594 3269 2400 
z
" transform="scale(0.015625)"/>
      <path id="SegoeUI-Italic-6f" d="M 3181 2016 
Q 3181 1591 3061 1209 
Q 2941 828 2714 542 
Q 2488 256 2164 89 
Q 1841 -78 1434 -78 
Q 1159 -78 939 9 
Q 719 97 564 261 
Q 409 425 326 658 
Q 244 891 244 1184 
Q 244 1625 370 2008 
Q 497 2391 726 2673 
Q 956 2956 1276 3117 
Q 1597 3278 1984 3278 
Q 2256 3278 2476 3190 
Q 2697 3103 2853 2939 
Q 3009 2775 3095 2542 
Q 3181 2309 3181 2016 
z
M 2656 1991 
Q 2656 2194 2606 2351 
Q 2556 2509 2465 2617 
Q 2375 2725 2247 2783 
Q 2119 2841 1959 2841 
Q 1684 2841 1462 2700 
Q 1241 2559 1087 2329 
Q 934 2100 851 1808 
Q 769 1516 769 1209 
Q 769 1016 817 858 
Q 866 700 955 589 
Q 1044 478 1173 418 
Q 1303 359 1466 359 
Q 1744 359 1966 498 
Q 2188 638 2341 867 
Q 2494 1097 2575 1390 
Q 2656 1684 2656 1991 
z
" transform="scale(0.015625)"/>
      <path id="SegoeUI-Italic-74" d="M 2156 2766 
L 1350 2766 
L 991 1069 
Q 972 972 953 859 
Q 934 747 934 678 
Q 934 519 1004 448 
Q 1075 378 1228 378 
Q 1266 378 1325 390 
Q 1384 403 1446 422 
Q 1509 441 1570 464 
Q 1631 488 1678 506 
L 1581 56 
Q 1472 9 1333 -23 
Q 1194 -56 1069 -56 
Q 891 -56 766 -11 
Q 641 34 561 118 
Q 481 203 445 323 
Q 409 444 409 594 
Q 409 684 426 804 
Q 444 925 469 1025 
L 838 2766 
L 306 2766 
L 403 3200 
L 928 3200 
L 1094 3981 
Q 1106 3988 1189 4011 
Q 1272 4034 1370 4064 
Q 1469 4094 1551 4119 
Q 1634 4144 1644 4147 
L 1447 3200 
L 2253 3200 
L 2156 2766 
z
" transform="scale(0.015625)"/>
      <path id="SegoeUI-Italic-20" transform="scale(0.015625)"/>
      <path id="SegoeUI-Italic-72" d="M 2394 2656 
L 2381 2656 
Q 2319 2694 2217 2730 
Q 2116 2766 2016 2766 
Q 1834 2766 1668 2648 
Q 1503 2531 1367 2339 
Q 1231 2147 1129 1900 
Q 1028 1653 972 1394 
L 672 0 
L 159 0 
L 609 2125 
Q 638 2256 666 2400 
Q 694 2544 717 2687 
Q 741 2831 759 2962 
Q 778 3094 788 3200 
L 1294 3200 
Q 1284 3106 1271 3001 
Q 1259 2897 1246 2798 
Q 1234 2700 1221 2620 
Q 1209 2541 1203 2497 
L 1216 2497 
Q 1316 2675 1419 2819 
Q 1522 2963 1636 3064 
Q 1750 3166 1878 3222 
Q 2006 3278 2156 3278 
Q 2244 3278 2330 3261 
Q 2416 3244 2484 3225 
L 2394 2656 
z
" transform="scale(0.015625)"/>
      <path id="SegoeUI-Italic-65" d="M 2994 2450 
Q 2994 2197 2881 1989 
Q 2769 1781 2509 1632 
Q 2250 1484 1825 1403 
Q 1400 1322 775 1319 
Q 769 1284 769 1247 
Q 769 1213 769 1184 
Q 769 1016 816 866 
Q 863 716 961 603 
Q 1059 491 1214 425 
Q 1369 359 1581 359 
Q 1797 359 2055 442 
Q 2313 525 2547 678 
L 2450 172 
Q 2278 72 2040 -3 
Q 1803 -78 1509 -78 
Q 1156 -78 914 31 
Q 672 141 523 323 
Q 375 506 309 745 
Q 244 984 244 1247 
Q 244 1528 306 1789 
Q 369 2050 483 2275 
Q 597 2500 756 2686 
Q 916 2872 1109 3003 
Q 1303 3134 1525 3206 
Q 1747 3278 1984 3278 
Q 2231 3278 2420 3212 
Q 2609 3147 2736 3033 
Q 2863 2919 2928 2769 
Q 2994 2619 2994 2450 
z
M 2472 2425 
Q 2472 2622 2326 2731 
Q 2181 2841 1941 2841 
Q 1750 2841 1572 2758 
Q 1394 2675 1244 2529 
Q 1094 2384 984 2182 
Q 875 1981 825 1747 
Q 1272 1747 1584 1792 
Q 1897 1838 2094 1925 
Q 2291 2013 2381 2139 
Q 2472 2266 2472 2425 
z
" transform="scale(0.015625)"/>
      <path id="SegoeUI-Italic-70" d="M 3225 2081 
Q 3225 1850 3175 1601 
Q 3125 1353 3022 1112 
Q 2919 872 2764 656 
Q 2609 441 2400 277 
Q 2191 113 1925 17 
Q 1659 -78 1338 -78 
Q 1153 -78 973 -43 
Q 794 -9 659 38 
L 341 -1484 
L -178 -1484 
L 603 2216 
Q 625 2316 644 2456 
Q 663 2597 677 2739 
Q 691 2881 700 3006 
Q 709 3131 709 3200 
L 1234 3200 
Q 1234 3147 1226 3056 
Q 1219 2966 1206 2867 
Q 1194 2769 1181 2676 
Q 1169 2584 1159 2528 
L 1172 2528 
Q 1394 2906 1672 3092 
Q 1950 3278 2278 3278 
Q 2497 3278 2672 3203 
Q 2847 3128 2970 2978 
Q 3094 2828 3159 2603 
Q 3225 2378 3225 2081 
z
M 2700 2059 
Q 2700 2228 2670 2372 
Q 2641 2516 2572 2619 
Q 2503 2722 2395 2781 
Q 2288 2841 2131 2841 
Q 1969 2841 1826 2773 
Q 1684 2706 1562 2593 
Q 1441 2481 1341 2332 
Q 1241 2184 1162 2025 
Q 1084 1866 1029 1705 
Q 975 1544 947 1403 
L 750 475 
Q 806 450 884 429 
Q 963 409 1047 393 
Q 1131 378 1218 368 
Q 1306 359 1381 359 
Q 1597 359 1780 431 
Q 1963 503 2108 626 
Q 2253 750 2364 917 
Q 2475 1084 2550 1273 
Q 2625 1463 2662 1664 
Q 2700 1866 2700 2059 
z
" transform="scale(0.015625)"/>
      <path id="SegoeUI-Italic-64" d="M 2816 984 
Q 2794 884 2773 743 
Q 2753 603 2737 461 
Q 2722 319 2711 194 
Q 2700 69 2700 0 
L 2169 0 
Q 2169 53 2176 142 
Q 2184 231 2195 328 
Q 2206 425 2218 514 
Q 2231 603 2241 659 
L 2228 659 
Q 2116 478 2003 339 
Q 1891 200 1766 108 
Q 1641 16 1500 -31 
Q 1359 -78 1191 -78 
Q 972 -78 797 0 
Q 622 78 498 229 
Q 375 381 309 604 
Q 244 828 244 1119 
Q 244 1350 292 1600 
Q 341 1850 442 2090 
Q 544 2331 700 2547 
Q 856 2763 1072 2925 
Q 1288 3088 1566 3183 
Q 1844 3278 2188 3278 
Q 2363 3278 2513 3254 
Q 2663 3231 2772 3206 
L 3097 4738 
L 3603 4738 
L 2816 984 
z
M 2681 2766 
Q 2563 2800 2433 2820 
Q 2303 2841 2156 2841 
Q 1884 2841 1676 2756 
Q 1469 2672 1314 2531 
Q 1159 2391 1054 2211 
Q 950 2031 886 1842 
Q 822 1653 795 1470 
Q 769 1288 769 1141 
Q 769 966 798 822 
Q 828 678 895 575 
Q 963 472 1069 415 
Q 1175 359 1325 359 
Q 1481 359 1617 425 
Q 1753 491 1872 603 
Q 1991 716 2087 862 
Q 2184 1009 2262 1175 
Q 2341 1341 2395 1511 
Q 2450 1681 2484 1838 
L 2681 2766 
z
" transform="scale(0.015625)"/>
     </defs>
     <use xlink:href="#SegoeUI-Italic-6e"/>
     <use xlink:href="#SegoeUI-Italic-6f" transform="translate(56.201172 0)"/>
     <use xlink:href="#SegoeUI-Italic-74" transform="translate(109.716797 0)"/>
     <use xlink:href="#SegoeUI-Italic-20" transform="translate(142.041016 0)"/>
     <use xlink:href="#SegoeUI-Italic-72" transform="translate(169.53125 0)"/>
     <use xlink:href="#SegoeUI-Italic-65" transform="translate(205.154297 0)"/>
     <use xlink:href="#SegoeUI-Italic-70" transform="translate(253.835938 0)"/>
     <use xlink:href="#SegoeUI-Italic-6f" transform="translate(308.035156 0)"/>
     <use xlink:href="#SegoeUI-Italic-72" transform="translate(361.550781 0)"/>
     <use xlink:href="#SegoeUI-Italic-74" transform="translate(399.048828 0)"/>
     <use xlink:href="#SegoeUI-Italic-65" transform="translate(431.498047 0)"/>
     <use xlink:href="#SegoeUI-Italic-64" transform="translate(480.179688 0)"/>
    </g>
    <!-- by ISM -->
    <g style="fill: #9aa3ae" transform="translate(569.256388 231.631667) scale(0.085 -0.085)">
     <defs>
      <path id="SegoeUI-Italic-62" d="M 3225 2081 
Q 3225 1869 3181 1626 
Q 3138 1384 3041 1145 
Q 2944 906 2794 684 
Q 2644 463 2433 294 
Q 2222 125 1945 23 
Q 1669 -78 1319 -78 
Q 1175 -78 1022 -58 
Q 869 -38 722 0 
Q 575 38 440 91 
Q 306 144 197 213 
L 1159 4738 
L 1678 4738 
L 1356 3206 
Q 1322 3053 1286 2884 
Q 1250 2716 1216 2584 
L 1222 2584 
Q 1322 2744 1434 2872 
Q 1547 3000 1676 3090 
Q 1806 3181 1954 3229 
Q 2103 3278 2278 3278 
Q 2734 3278 2979 2965 
Q 3225 2653 3225 2081 
z
M 2700 2069 
Q 2700 2247 2667 2390 
Q 2634 2534 2564 2634 
Q 2494 2734 2384 2787 
Q 2275 2841 2119 2841 
Q 1922 2841 1740 2725 
Q 1559 2609 1409 2418 
Q 1259 2228 1150 1987 
Q 1041 1747 991 1497 
L 781 500 
Q 888 441 1048 400 
Q 1209 359 1381 359 
Q 1603 359 1787 432 
Q 1972 506 2119 634 
Q 2266 763 2375 931 
Q 2484 1100 2556 1289 
Q 2628 1478 2664 1679 
Q 2700 1881 2700 2069 
z
" transform="scale(0.015625)"/>
      <path id="SegoeUI-Italic-79" d="M 1147 -531 
Q 1003 -766 856 -945 
Q 709 -1125 548 -1250 
Q 388 -1375 205 -1439 
Q 22 -1503 -197 -1503 
Q -269 -1503 -358 -1489 
Q -447 -1475 -500 -1459 
L -403 -1006 
Q -356 -1031 -281 -1047 
Q -206 -1063 -134 -1063 
Q 81 -1063 254 -944 
Q 428 -825 581 -581 
L 966 13 
L 384 3200 
L 916 3200 
L 1288 744 
Q 1297 675 1298 611 
Q 1300 547 1294 500 
L 1313 500 
Q 1328 538 1361 606 
Q 1394 675 1434 738 
L 2853 3200 
L 3419 3200 
L 1147 -531 
z
" transform="scale(0.015625)"/>
      <path id="SegoeUI-Italic-49" d="M 769 0 
L 231 0 
L 1178 4481 
L 1722 4481 
L 769 0 
z
" transform="scale(0.015625)"/>
      <path id="SegoeUI-Italic-53" d="M 3097 3809 
Q 3019 3866 2911 3916 
Q 2803 3966 2679 4003 
Q 2556 4041 2422 4062 
Q 2288 4084 2156 4084 
Q 1906 4084 1736 4014 
Q 1566 3944 1462 3836 
Q 1359 3728 1314 3600 
Q 1269 3472 1269 3359 
Q 1269 3213 1309 3094 
Q 1350 2975 1431 2865 
Q 1513 2756 1641 2647 
Q 1769 2538 1941 2413 
Q 2134 2272 2286 2134 
Q 2438 1997 2544 1851 
Q 2650 1706 2704 1545 
Q 2759 1384 2759 1197 
Q 2759 1081 2736 942 
Q 2713 803 2652 662 
Q 2591 522 2484 387 
Q 2378 253 2214 150 
Q 2050 47 1819 -15 
Q 1588 -78 1275 -78 
Q 1100 -78 931 -53 
Q 763 -28 611 12 
Q 459 53 332 104 
Q 206 156 116 206 
L 206 750 
Q 306 678 434 614 
Q 563 550 706 501 
Q 850 453 1003 425 
Q 1156 397 1306 397 
Q 1544 397 1714 453 
Q 1884 509 1995 607 
Q 2106 706 2157 840 
Q 2209 975 2209 1131 
Q 2209 1272 2165 1384 
Q 2122 1497 2031 1605 
Q 1941 1713 1802 1823 
Q 1663 1934 1472 2069 
Q 1319 2178 1180 2304 
Q 1041 2431 936 2581 
Q 831 2731 770 2907 
Q 709 3084 709 3291 
Q 709 3547 804 3776 
Q 900 4006 1087 4179 
Q 1275 4353 1551 4454 
Q 1828 4556 2194 4556 
Q 2334 4556 2473 4539 
Q 2613 4522 2744 4492 
Q 2875 4463 2992 4427 
Q 3109 4391 3200 4353 
L 3097 3809 
z
" transform="scale(0.015625)"/>
      <path id="SegoeUI-Italic-4d" d="M 4300 0 
L 3778 0 
L 4416 3006 
Q 4453 3184 4512 3411 
Q 4572 3638 4650 3897 
L 4638 3897 
Q 4600 3822 4544 3730 
Q 4488 3638 4427 3552 
Q 4366 3466 4316 3397 
Q 4266 3328 4244 3294 
L 2641 1169 
L 2384 1169 
L 1684 3288 
Q 1678 3325 1654 3395 
Q 1631 3466 1609 3552 
Q 1588 3638 1570 3728 
Q 1553 3819 1553 3897 
L 1541 3897 
Q 1522 3763 1480 3534 
Q 1438 3306 1375 3000 
L 738 0 
L 231 0 
L 1181 4481 
L 1806 4481 
L 2516 2350 
Q 2563 2209 2589 2087 
Q 2616 1966 2622 1875 
L 2641 1875 
Q 2691 1969 2762 2094 
Q 2834 2219 2947 2363 
L 4556 4481 
L 5250 4481 
L 4300 0 
z
" transform="scale(0.015625)"/>
     </defs>
     <use xlink:href="#SegoeUI-Italic-62"/>
     <use xlink:href="#SegoeUI-Italic-79" transform="translate(53.199219 0)"/>
     <use xlink:href="#SegoeUI-Italic-20" transform="translate(101.587891 0)"/>
     <use xlink:href="#SegoeUI-Italic-49" transform="translate(129.078125 0)"/>
     <use xlink:href="#SegoeUI-Italic-53" transform="translate(155.689453 0)"/>
     <use xlink:href="#SegoeUI-Italic-4d" transform="translate(205.396484 0)"/>
    </g>
   </g>
   <g id="text_26">
    <!-- PG&amp;E Ignitions in High Fire Threat Districts -->
    <g transform="translate(260.125625 22.645) scale(0.16 -0.16)">
     <defs>
      <path id="SegoeUI-Semibold-47" d="M 4050 306 
Q 3350 -75 2491 -75 
Q 1497 -75 881 544 
Q 266 1163 266 2181 
Q 266 3222 939 3889 
Q 1613 4556 2650 4556 
Q 3397 4556 3906 4338 
L 3906 3572 
Q 3391 3916 2678 3916 
Q 1963 3916 1505 3444 
Q 1047 2972 1047 2222 
Q 1047 1450 1440 1008 
Q 1834 566 2509 566 
Q 2972 566 3309 744 
L 3309 1809 
L 2366 1809 
L 2366 2434 
L 4050 2434 
L 4050 306 
z
" transform="scale(0.015625)"/>
      <path id="SegoeUI-Semibold-26" d="M 3622 -3 
L 3213 431 
Q 3078 313 2914 217 
Q 2750 122 2567 56 
Q 2384 -9 2187 -43 
Q 1991 -78 1791 -78 
Q 1453 -78 1181 9 
Q 909 97 717 258 
Q 525 419 420 644 
Q 316 869 316 1144 
Q 316 1916 1341 2444 
Q 869 3028 869 3481 
Q 869 3716 961 3912 
Q 1053 4109 1218 4251 
Q 1384 4394 1614 4475 
Q 1844 4556 2116 4556 
Q 2375 4556 2586 4484 
Q 2797 4413 2947 4284 
Q 3097 4156 3178 3979 
Q 3259 3803 3259 3597 
Q 3259 3394 3207 3230 
Q 3156 3066 3042 2922 
Q 2928 2778 2742 2647 
Q 2556 2516 2288 2384 
Q 2534 2119 2786 1856 
Q 3038 1594 3297 1328 
Q 3363 1428 3417 1553 
Q 3472 1678 3511 1815 
Q 3550 1953 3572 2100 
Q 3594 2247 3594 2388 
L 4228 2388 
Q 4228 1528 3684 884 
Q 3825 734 4039 515 
Q 4253 297 4544 -3 
L 3622 -3 
z
M 2606 3541 
Q 2606 3644 2567 3734 
Q 2528 3825 2462 3892 
Q 2397 3959 2309 3998 
Q 2222 4038 2122 4038 
Q 1991 4038 1883 3998 
Q 1775 3959 1698 3886 
Q 1622 3813 1580 3713 
Q 1538 3613 1538 3491 
Q 1538 3203 1947 2747 
Q 2606 3084 2606 3541 
z
M 2834 838 
Q 2469 1216 1691 2056 
Q 1347 1878 1195 1675 
Q 1044 1472 1044 1200 
Q 1044 1034 1105 901 
Q 1166 769 1272 675 
Q 1378 581 1523 531 
Q 1669 481 1838 481 
Q 2425 481 2834 838 
z
" transform="scale(0.015625)"/>
      <path id="SegoeUI-Semibold-49" d="M 1316 0 
L 550 0 
L 550 4481 
L 1316 4481 
L 1316 0 
z
" transform="scale(0.015625)"/>
      <path id="SegoeUI-Semibold-74" d="M 2159 34 
Q 1947 -72 1600 -72 
Q 669 -72 669 822 
L 669 2631 
L 134 2631 
L 134 3200 
L 669 3200 
L 669 3941 
L 1394 4147 
L 1394 3200 
L 2159 3200 
L 2159 2631 
L 1394 2631 
L 1394 1031 
Q 1394 747 1497 625 
Q 1600 503 1841 503 
Q 2025 503 2159 609 
L 2159 34 
z
" transform="scale(0.015625)"/>
      <path id="SegoeUI-Semibold-6f" d="M 1891 -75 
Q 1150 -75 708 373 
Q 266 822 266 1563 
Q 266 2369 727 2822 
Q 1188 3275 1969 3275 
Q 2719 3275 3137 2834 
Q 3556 2394 3556 1613 
Q 3556 847 3104 386 
Q 2653 -75 1891 -75 
z
M 1925 2697 
Q 1500 2697 1253 2400 
Q 1006 2103 1006 1581 
Q 1006 1078 1256 789 
Q 1506 500 1925 500 
Q 2353 500 2583 784 
Q 2813 1069 2813 1594 
Q 2813 2122 2583 2409 
Q 2353 2697 1925 2697 
z
" transform="scale(0.015625)"/>
      <path id="SegoeUI-Semibold-48" d="M 4153 0 
L 3406 0 
L 3406 1944 
L 1297 1944 
L 1297 0 
L 553 0 
L 553 4481 
L 1297 4481 
L 1297 2597 
L 3406 2597 
L 3406 4481 
L 4153 4481 
L 4153 0 
z
" transform="scale(0.015625)"/>
      <path id="SegoeUI-Semibold-68" d="M 3316 0 
L 2591 0 
L 2591 1750 
Q 2591 2700 1956 2700 
Q 1638 2700 1419 2425 
Q 1200 2150 1200 1722 
L 1200 0 
L 472 0 
L 472 4738 
L 1200 4738 
L 1200 2669 
L 1213 2669 
Q 1575 3275 2250 3275 
Q 3316 3275 3316 1972 
L 3316 0 
z
" transform="scale(0.015625)"/>
      <path id="SegoeUI-Semibold-46" d="M 2972 3850 
L 1297 3850 
L 1297 2503 
L 2841 2503 
L 2841 1875 
L 1297 1875 
L 1297 0 
L 553 0 
L 553 4481 
L 2972 4481 
L 2972 3850 
z
" transform="scale(0.015625)"/>
      <path id="SegoeUI-Semibold-72" d="M 2328 2509 
Q 2197 2613 1950 2613 
Q 1628 2613 1412 2322 
Q 1197 2031 1197 1531 
L 1197 0 
L 472 0 
L 472 3200 
L 1197 3200 
L 1197 2541 
L 1209 2541 
Q 1316 2878 1536 3067 
Q 1756 3256 2028 3256 
Q 2225 3256 2328 3197 
L 2328 2509 
z
" transform="scale(0.015625)"/>
      <path id="SegoeUI-Semibold-54" d="M 3428 3850 
L 2141 3850 
L 2141 0 
L 1397 0 
L 1397 3850 
L 113 3850 
L 113 4481 
L 3428 4481 
L 3428 3850 
z
" transform="scale(0.015625)"/>
      <path id="SegoeUI-Semibold-44" d="M 553 0 
L 553 4481 
L 1847 4481 
Q 4325 4481 4325 2297 
Q 4325 1259 3637 629 
Q 2950 0 1794 0 
L 553 0 
z
M 1294 3850 
L 1294 628 
L 1888 628 
Q 2672 628 3108 1059 
Q 3544 1491 3544 2278 
Q 3544 3850 1916 3850 
L 1294 3850 
z
" transform="scale(0.015625)"/>
     </defs>
     <use xlink:href="#SegoeUI-Semibold-50"/>
     <use xlink:href="#SegoeUI-Semibold-47" transform="translate(58.447266 0)"/>
     <use xlink:href="#SegoeUI-Semibold-26" transform="translate(128.173828 0)"/>
     <use xlink:href="#SegoeUI-Semibold-45" transform="translate(199.707031 0)"/>
     <use xlink:href="#SegoeUI-Semibold-20" transform="translate(251.464844 0)"/>
     <use xlink:href="#SegoeUI-Semibold-49" transform="translate(278.955078 0)"/>
     <use xlink:href="#SegoeUI-Semibold-67" transform="translate(308.105469 0)"/>
     <use xlink:href="#SegoeUI-Semibold-6e" transform="translate(368.359375 0)"/>
     <use xlink:href="#SegoeUI-Semibold-69" transform="translate(426.708984 0)"/>
     <use xlink:href="#SegoeUI-Semibold-74" transform="translate(452.832031 0)"/>
     <use xlink:href="#SegoeUI-Semibold-69" transform="translate(488.964844 0)"/>
     <use xlink:href="#SegoeUI-Semibold-6f" transform="translate(515.087891 0)"/>
     <use xlink:href="#SegoeUI-Semibold-6e" transform="translate(574.804688 0)"/>
     <use xlink:href="#SegoeUI-Semibold-73" transform="translate(633.154297 0)"/>
     <use xlink:href="#SegoeUI-Semibold-20" transform="translate(676.269531 0)"/>
     <use xlink:href="#SegoeUI-Semibold-69" transform="translate(703.759766 0)"/>
     <use xlink:href="#SegoeUI-Semibold-6e" transform="translate(729.882812 0)"/>
     <use xlink:href="#SegoeUI-Semibold-20" transform="translate(788.232422 0)"/>
     <use xlink:href="#SegoeUI-Semibold-48" transform="translate(815.722656 0)"/>
     <use xlink:href="#SegoeUI-Semibold-69" transform="translate(889.257812 0)"/>
     <use xlink:href="#SegoeUI-Semibold-67" transform="translate(915.380859 0)"/>
     <use xlink:href="#SegoeUI-Semibold-68" transform="translate(975.634766 0)"/>
     <use xlink:href="#SegoeUI-Semibold-20" transform="translate(1033.837891 0)"/>
     <use xlink:href="#SegoeUI-Semibold-46" transform="translate(1061.328125 0)"/>
     <use xlink:href="#SegoeUI-Semibold-69" transform="translate(1111.572266 0)"/>
     <use xlink:href="#SegoeUI-Semibold-72" transform="translate(1137.695312 0)"/>
     <use xlink:href="#SegoeUI-Semibold-65" transform="translate(1173.832031 0)"/>
     <use xlink:href="#SegoeUI-Semibold-20" transform="translate(1226.957031 0)"/>
     <use xlink:href="#SegoeUI-Semibold-54" transform="translate(1254.447266 0)"/>
     <use xlink:href="#SegoeUI-Semibold-68" transform="translate(1309.623047 0)"/>
     <use xlink:href="#SegoeUI-Semibold-72" transform="translate(1367.826172 0)"/>
     <use xlink:href="#SegoeUI-Semibold-65" transform="translate(1403.962891 0)"/>
     <use xlink:href="#SegoeUI-Semibold-61" transform="translate(1457.087891 0)"/>
     <use xlink:href="#SegoeUI-Semibold-74" transform="translate(1509.285156 0)"/>
     <use xlink:href="#SegoeUI-Semibold-20" transform="translate(1545.417969 0)"/>
     <use xlink:href="#SegoeUI-Semibold-44" transform="translate(1572.908203 0)"/>
     <use xlink:href="#SegoeUI-Semibold-69" transform="translate(1644.636719 0)"/>
     <use xlink:href="#SegoeUI-Semibold-73" transform="translate(1670.759766 0)"/>
     <use xlink:href="#SegoeUI-Semibold-74" transform="translate(1713.875 0)"/>
     <use xlink:href="#SegoeUI-Semibold-72" transform="translate(1750.007812 0)"/>
     <use xlink:href="#SegoeUI-Semibold-69" transform="translate(1787.019531 0)"/>
     <use xlink:href="#SegoeUI-Semibold-63" transform="translate(1813.142578 0)"/>
     <use xlink:href="#SegoeUI-Semibold-74" transform="translate(1860.164062 0)"/>
     <use xlink:href="#SegoeUI-Semibold-73" transform="translate(1896.296875 0)"/>
    </g>
   </g>
   <g id="line2d_33">
    <path d="M 82.915739 163.407667 
L 149.388466 176.199667 
L 215.861193 66.757 
L 282.33392 130.717 
L 348.806648 181.885 
L 415.279375 134.981 
L 481.752102 161.986333 
" clip-path="url(#p5a6477a65f)" style="fill: none; stroke: #1a1a1a; stroke-width: 2.5; stroke-linecap: square"/>
    <defs>
     <path id="m9437671ee1" d="M 0 4 
C 1.060812 4 2.078319 3.578535 2.828427 2.828427 
C 3.578535 2.078319 4 1.060812 4 0 
C 4 -1.060812 3.578535 -2.078319 2.828427 -2.828427 
C 2.078319 -3.578535 1.060812 -4 0 -4 
C -1.060812 -4 -2.078319 -3.578535 -2.828427 -2.828427 
C -3.578535 -2.078319 -4 -1.060812 -4 0 
C -4 1.060812 -3.578535 2.078319 -2.828427 2.828427 
C -2.078319 3.578535 -1.060812 4 0 4 
z
" style="stroke: #ffffff; stroke-width: 1.2"/>
    </defs>
    <g clip-path="url(#p5a6477a65f)">
     <use xlink:href="#m9437671ee1" x="82.915739" y="163.407667" style="fill: #1a1a1a; stroke: #ffffff; stroke-width: 1.2"/>
     <use xlink:href="#m9437671ee1" x="149.388466" y="176.199667" style="fill: #1a1a1a; stroke: #ffffff; stroke-width: 1.2"/>
     <use xlink:href="#m9437671ee1" x="215.861193" y="66.757" style="fill: #1a1a1a; stroke: #ffffff; stroke-width: 1.2"/>
     <use xlink:href="#m9437671ee1" x="282.33392" y="130.717" style="fill: #1a1a1a; stroke: #ffffff; stroke-width: 1.2"/>
     <use xlink:href="#m9437671ee1" x="348.806648" y="181.885" style="fill: #1a1a1a; stroke: #ffffff; stroke-width: 1.2"/>
     <use xlink:href="#m9437671ee1" x="415.279375" y="134.981" style="fill: #1a1a1a; stroke: #ffffff; stroke-width: 1.2"/>
     <use xlink:href="#m9437671ee1" x="481.752102" y="161.986333" style="fill: #1a1a1a; stroke: #ffffff; stroke-width: 1.2"/>
    </g>
   </g>
   <g id="line2d_34">
    <defs>
     <path id="m87cd4dcfea" d="M 0 5 
C 1.326016 5 2.597899 4.473168 3.535534 3.535534 
C 4.473168 2.597899 5 1.326016 5 0 
C 5 -1.326016 4.473168 -2.597899 3.535534 -3.535534 
C 2.597899 -4.473168 1.326016 -5 0 -5 
C -1.326016 -5 -2.597899 -4.473168 -3.535534 -3.535534 
C -4.473168 -2.597899 -5 -1.326016 -5 0 
C -5 1.326016 -4.473168 2.597899 -3.535534 3.535534 
C -2.597899 4.473168 -1.326016 5 0 5 
z
" style="stroke: #ffffff; stroke-width: 1.5"/>
    </defs>
    <g clip-path="url(#p5a6477a65f)">
     <use xlink:href="#m87cd4dcfea" x="681.170284" y="272.850333" style="fill: #009e73; stroke: #ffffff; stroke-width: 1.5"/>
    </g>
   </g>
  </g>
 </g>
 <defs>
  <clipPath id="p5a6477a65f">
   <rect x="49.679375" y="32.645" width="731.2" height="319.8"/>
  </clipPath>
 </defs>
</svg>
